<svg width="102" height="28" viewBox="0 0 102 28" fill="none" xmlns="http://www.w3.org/2000/svg">
<path d="M9.80482 11.7817L0.0896003 22.3259C0.0905128 22.3278 0.0905127 22.3306 0.0914252 22.3325C0.389807 23.4774 1.41179 24.32 2.62539 24.32C3.11083 24.32 3.56616 24.1856 3.95671 23.9505L3.98773 23.9318L14.9229 17.4793L9.80482 11.7817Z" fill="#EA4335"/>
<path d="M19.6331 9.98619L19.624 9.97966L14.9028 7.18123L9.58391 12.0213L14.9219 17.4782L19.6176 14.7078C20.4406 14.2524 21 13.365 21 12.3423C21 11.3252 20.4489 10.4425 19.6331 9.98619Z" fill="#FBBC04"/>
<path d="M0.0894234 2.31332C0.0310244 2.53353 0 2.76495 0 3.00383V21.6364C0 21.8752 0.0302889 22.1066 0.0896003 22.3259L10.1386 12.0513L0.0894234 2.31332Z" fill="#4285F4"/>
<path d="M9.87657 12.3199L14.9044 7.17936L3.98192 0.703512C3.58499 0.459967 3.12145 0.320001 2.62597 0.320001C1.41237 0.320001 0.38856 1.16447 0.0901781 2.31034C0.0901781 2.31128 0.0894234 2.31238 0.0894234 2.31332L9.87657 12.3199Z" fill="#34A853"/>
<path d="M35.61 4.03C35.61 5.03 35.3133 5.82667 34.72 6.42C34.0533 7.12667 33.1767 7.48 32.09 7.48C31.05 7.48 30.17 7.12 29.45 6.4C28.73 5.68 28.37 4.79333 28.37 3.74C28.37 2.68667 28.73 1.8 29.45 1.08C30.17 0.36 31.05 0 32.09 0C32.6167 0 33.1133 0.0933333 33.58 0.28C34.0467 0.466667 34.43 0.73 34.73 1.07L34.07 1.73C33.85 1.46333 33.5633 1.25667 33.21 1.11C32.8633 0.956667 32.49 0.88 32.09 0.88C31.31 0.88 30.65 1.15 30.11 1.69C29.5767 2.23667 29.31 2.92 29.31 3.74C29.31 4.56 29.5767 5.24333 30.11 5.79C30.65 6.33 31.31 6.6 32.09 6.6C32.8033 6.6 33.3967 6.4 33.87 6C34.3433 5.6 34.6167 5.05 34.69 4.35H32.09V3.49H35.56C35.5933 3.67667 35.61 3.85667 35.61 4.03Z" fill="black"/>
<path d="M40.9078 0.16V1.04H37.6478V3.31H40.5878V4.17H37.6478V6.44H40.9078V7.32H36.7278V0.16H40.9078Z" fill="black"/>
<path d="M44.5877 1.04V7.32H43.6677V1.04H41.6677V0.16H46.5877V1.04H44.5877Z" fill="black"/>
<path d="M50.6654 7.32H49.7454V0.16H50.6654V7.32Z" fill="black"/>
<path d="M54.5487 1.04V7.32H53.6287V1.04H51.6287V0.16H56.5487V1.04H54.5487Z" fill="black"/>
<path d="M66.521 3.74C66.521 4.8 66.1677 5.68667 65.461 6.4C64.7477 7.12 63.8743 7.48 62.841 7.48C61.801 7.48 60.9277 7.12 60.221 6.4C59.5143 5.68667 59.161 4.8 59.161 3.74C59.161 2.68 59.5143 1.79333 60.221 1.08C60.9277 0.36 61.801 0 62.841 0C63.881 0 64.7543 0.363333 65.461 1.09C66.1677 1.80333 66.521 2.68667 66.521 3.74ZM60.101 3.74C60.101 4.56667 60.361 5.25 60.881 5.79C61.4077 6.33 62.061 6.6 62.841 6.6C63.621 6.6 64.271 6.33 64.791 5.79C65.3177 5.25667 65.581 4.57333 65.581 3.74C65.581 2.90667 65.3177 2.22333 64.791 1.69C64.271 1.15 63.621 0.88 62.841 0.88C62.061 0.88 61.4077 1.15 60.881 1.69C60.361 2.23 60.101 2.91333 60.101 3.74Z" fill="black"/>
<path d="M68.5267 7.32H67.6067V0.16H68.7267L72.2067 5.73H72.2467L72.2067 4.35V0.16H73.1267V7.32H72.1667L68.5267 1.48H68.4867L68.5267 2.86V7.32Z" fill="black"/>
<path d="M85.5181 23.7297H87.1469V12.7181H85.5181V23.7297ZM100.189 16.6846L98.3217 21.4588H98.2658L96.328 16.6846H94.5735L97.4793 23.3571L95.8234 27.069H97.5212L102 16.6846H100.189ZM90.9519 22.4788C90.4176 22.4788 89.674 22.2102 89.674 21.5434C89.674 20.6942 90.6001 20.3683 91.4005 20.3683C92.1163 20.3683 92.4541 20.5242 92.8888 20.7365C92.7622 21.7565 91.892 22.4788 90.9519 22.4788ZM91.1483 16.4441C89.969 16.4441 88.7469 16.9682 88.2424 18.1301L89.6879 18.7388C89.9969 18.1301 90.5721 17.931 91.1762 17.931C92.0185 17.931 92.8748 18.441 92.8888 19.3483V19.4611C92.5938 19.291 91.9627 19.0365 91.1902 19.0365C89.632 19.0365 88.0451 19.9006 88.0451 21.5152C88.0451 22.9889 89.323 23.9384 90.7546 23.9384C91.8501 23.9384 92.4541 23.4425 92.8329 22.8611H92.8888V23.7112H94.4609V19.4892C94.4609 17.5346 93.0154 16.4441 91.1483 16.4441ZM81.0821 18.0253H78.7655V14.2508H81.0821C82.2998 14.2508 82.9911 15.2682 82.9911 16.1376C82.9911 16.9911 82.2998 18.0253 81.0821 18.0253ZM81.0402 12.7181H77.1375V23.7297H78.7655V19.5579H81.0402C82.8453 19.5579 84.6199 18.2384 84.6199 16.1376C84.6199 14.0368 82.8453 12.7181 81.0402 12.7181ZM59.7583 22.4806C58.6332 22.4806 57.6913 21.5302 57.6913 20.2248C57.6913 18.9052 58.6332 17.9398 59.7583 17.9398C60.8695 17.9398 61.7406 18.9052 61.7406 20.2248C61.7406 21.5302 60.8695 22.4806 59.7583 22.4806ZM61.6289 17.3012H61.5722C61.2064 16.8617 60.5038 16.4644 59.6178 16.4644C57.7611 16.4644 56.0599 18.1098 56.0599 20.2248C56.0599 22.3247 57.7611 23.9569 59.6178 23.9569C60.5038 23.9569 61.2064 23.5596 61.5722 23.1051H61.6289V23.6451C61.6289 25.0782 60.8695 25.8446 59.6457 25.8446C58.6471 25.8446 58.0282 25.1205 57.7751 24.5101L56.3549 25.1064C56.7626 26.1 57.8458 27.32 59.6457 27.32C61.5582 27.32 63.1757 26.1846 63.1757 23.4178V16.6908H61.6289V17.3012ZM64.3008 23.7297H65.9323V12.7173H64.3008V23.7297ZM68.3362 20.097C68.2943 18.6498 69.4474 17.9116 70.2766 17.9116C70.9243 17.9116 71.4725 18.2376 71.6549 18.7062L68.3362 20.097ZM73.3989 18.848C73.0899 18.0112 72.1472 16.4644 70.2207 16.4644C68.3083 16.4644 66.7196 17.9821 66.7196 20.2107C66.7196 22.3106 68.2943 23.9569 70.4032 23.9569C72.1053 23.9569 73.0899 22.9069 73.4976 22.2965L72.2319 21.4447C71.8103 22.0693 71.2333 22.4806 70.4032 22.4806C69.5739 22.4806 68.983 22.0974 68.6033 21.3461L73.5674 19.2734L73.3989 18.848ZM33.8501 17.6139V19.203H37.6184C37.5058 20.097 37.2107 20.7497 36.7612 21.2034C36.2121 21.7574 35.3541 22.3679 33.8501 22.3679C31.5291 22.3679 29.7152 20.4802 29.7152 18.1389C29.7152 15.7967 31.5291 13.9099 33.8501 13.9099C35.1018 13.9099 36.0157 14.4067 36.6905 15.0454L37.8017 13.924C36.8589 13.0159 35.6081 12.32 33.8501 12.32C30.6719 12.32 28 14.9317 28 18.1389C28 21.3461 30.6719 23.9569 33.8501 23.9569C35.5653 23.9569 36.8589 23.3888 37.8715 22.3247C38.9129 21.2747 39.2358 19.7993 39.2358 18.6066C39.2358 18.2376 39.2079 17.8975 39.1512 17.6139H33.8501ZM43.5208 22.4806C42.3957 22.4806 41.425 21.5443 41.425 20.2107C41.425 18.8621 42.3957 17.9398 43.5208 17.9398C44.6451 17.9398 45.6158 18.8621 45.6158 20.2107C45.6158 21.5443 44.6451 22.4806 43.5208 22.4806ZM43.5208 16.4644C41.4669 16.4644 39.7936 18.0394 39.7936 20.2107C39.7936 22.3679 41.4669 23.9569 43.5208 23.9569C45.5739 23.9569 47.2472 22.3679 47.2472 20.2107C47.2472 18.0394 45.5739 16.4644 43.5208 16.4644ZM51.65 22.4806C50.5249 22.4806 49.5542 21.5443 49.5542 20.2107C49.5542 18.8621 50.5249 17.9398 51.65 17.9398C52.7752 17.9398 53.745 18.8621 53.745 20.2107C53.745 21.5443 52.7752 22.4806 51.65 22.4806ZM51.65 16.4644C49.597 16.4644 47.9237 18.0394 47.9237 20.2107C47.9237 22.3679 49.597 23.9569 51.65 23.9569C53.7031 23.9569 55.3764 22.3679 55.3764 20.2107C55.3764 18.0394 53.7031 16.4644 51.65 16.4644Z" fill="black"/>
</svg>
