<svg width="102" height="26" viewBox="0 0 102 26" fill="none" xmlns="http://www.w3.org/2000/svg">
<path d="M16.7045 12.7631C16.7166 11.8432 16.9669 10.9413 17.4321 10.1412C17.8972 9.34108 18.5621 8.66885 19.3648 8.18702C18.8548 7.47597 18.1821 6.89081 17.4 6.478C16.6178 6.0652 15.7479 5.83613 14.8592 5.80898C12.9635 5.61471 11.1258 6.91644 10.1598 6.91644C9.17506 6.91644 7.68776 5.82827 6.08616 5.86044C5.05021 5.89311 4.04059 6.18722 3.15568 6.7141C2.27077 7.24099 1.54075 7.98268 1.03674 8.86691C-1.14648 12.5573 0.482005 17.9809 2.57338 20.964C3.61975 22.4247 4.84264 24.0564 6.44279 23.9985C8.00863 23.9351 8.59344 23.0237 10.4835 23.0237C12.3561 23.0237 12.9048 23.9985 14.5374 23.9617C16.2176 23.9351 17.2762 22.4945 18.2859 21.02C19.0377 19.9792 19.6162 18.8288 20 17.6116C19.0238 17.2085 18.1908 16.5338 17.6048 15.6716C17.0187 14.8094 16.7056 13.7979 16.7045 12.7631Z" fill="black"/>
<path d="M13.6208 3.84713C14.5369 2.77343 14.9883 1.39335 14.879 0C13.4794 0.143519 12.1865 0.796596 11.258 1.82911C10.804 2.33351 10.4563 2.92033 10.2348 3.55601C10.0132 4.19168 9.92221 4.86375 9.96687 5.5338C10.6669 5.54084 11.3595 5.3927 11.9924 5.10054C12.6254 4.80838 13.1821 4.37982 13.6208 3.84713Z" fill="black"/>
<path d="M28.791 0.501465H30.8608C32.6494 0.501465 33.5195 1.56494 33.5195 3.49414C33.5195 5.42334 32.6406 6.5 30.8608 6.5H28.791V0.501465ZM29.7886 1.34082V5.66064H30.751C31.9375 5.66064 32.4956 4.94434 32.4956 3.50732C32.4956 2.06152 31.9331 1.34082 30.751 1.34082H29.7886Z" fill="black"/>
<path d="M36.6748 1.77588C37.8877 1.77588 38.7358 2.5625 38.7358 3.86768V4.46973C38.7358 5.81885 37.8877 6.5791 36.6748 6.5791C35.4443 6.5791 34.605 5.82764 34.605 4.47412V3.87207C34.605 2.60205 35.4575 1.77588 36.6748 1.77588ZM36.6792 2.5625C35.9849 2.5625 35.5894 3.14258 35.5894 3.92041V4.43896C35.5894 5.2168 35.9585 5.79248 36.6792 5.79248C37.3911 5.79248 37.7559 5.22119 37.7559 4.43896V3.92041C37.7559 3.14258 37.3735 2.5625 36.6792 2.5625Z" fill="black"/>
<path d="M45.8989 1.85498L44.6772 6.5H43.6841L42.7129 3.07227H42.6865L41.7329 6.5H40.7354L39.4609 1.85498H40.5112L41.2583 5.39697H41.3022L42.2383 1.85498H43.1567L44.1191 5.39697H44.1631L44.9233 1.85498H45.8989Z" fill="black"/>
<path d="M46.8657 6.5V1.85498H47.8237V2.68994H47.8721C47.9907 2.3252 48.3291 1.78467 49.2695 1.78467C50.2056 1.78467 50.834 2.30322 50.834 3.3623V6.5H49.8584V3.64795C49.8584 2.94043 49.4893 2.61523 48.9399 2.61523C48.2192 2.61523 47.8413 3.16895 47.8413 3.92041V6.5H46.8657Z" fill="black"/>
<path d="M52.3105 6.5V0.185059H53.2861V6.5H52.3105Z" fill="black"/>
<path d="M56.6348 1.77588C57.8477 1.77588 58.6958 2.5625 58.6958 3.86768V4.46973C58.6958 5.81885 57.8477 6.5791 56.6348 6.5791C55.4043 6.5791 54.5649 5.82764 54.5649 4.47412V3.87207C54.5649 2.60205 55.4175 1.77588 56.6348 1.77588ZM56.6392 2.5625C55.9448 2.5625 55.5493 3.14258 55.5493 3.92041V4.43896C55.5493 5.2168 55.9185 5.79248 56.6392 5.79248C57.3511 5.79248 57.7158 5.22119 57.7158 4.43896V3.92041C57.7158 3.14258 57.3335 2.5625 56.6392 2.5625Z" fill="black"/>
<path d="M61.2227 6.57031C60.3218 6.57031 59.7021 6.0166 59.7021 5.15088C59.7021 4.3291 60.2734 3.77539 61.3457 3.77539H62.519V3.34033C62.519 2.80859 62.1807 2.55811 61.6445 2.55811C61.1172 2.55811 60.8799 2.77783 60.8052 3.08545H59.8779C59.9351 2.30762 60.5195 1.78467 61.6753 1.78467C62.6685 1.78467 63.4902 2.19775 63.4902 3.35352V6.5H62.563V5.89795H62.519C62.3125 6.25391 61.9082 6.57031 61.2227 6.57031ZM61.5259 5.81445C62.0796 5.81445 62.519 5.43652 62.519 4.93115V4.43018H61.4995C60.9326 4.43018 60.6821 4.71582 60.6821 5.10254C60.6821 5.58594 61.0864 5.81445 61.5259 5.81445Z" fill="black"/>
<path d="M66.4961 1.79346C67.1509 1.79346 67.6519 2.0835 67.832 2.55371H67.8804V0.185059H68.856V6.5H67.9067V5.75732H67.8584C67.7178 6.22754 67.1597 6.56152 66.4829 6.56152C65.415 6.56152 64.7207 5.80127 64.7207 4.5752V3.77979C64.7207 2.55371 65.4282 1.79346 66.4961 1.79346ZM66.7686 2.59326C66.1182 2.59326 65.7139 3.07666 65.7139 3.92041V4.43018C65.7139 5.27832 66.1226 5.76172 66.7905 5.76172C67.4497 5.76172 67.8804 5.28271 67.8804 4.4917V3.78857C67.8804 3.07227 67.4102 2.59326 66.7686 2.59326Z" fill="black"/>
<path d="M74.2129 1.77588C75.4258 1.77588 76.2739 2.5625 76.2739 3.86768V4.46973C76.2739 5.81885 75.4258 6.5791 74.2129 6.5791C72.9824 6.5791 72.1431 5.82764 72.1431 4.47412V3.87207C72.1431 2.60205 72.9956 1.77588 74.2129 1.77588ZM74.2173 2.5625C73.5229 2.5625 73.1274 3.14258 73.1274 3.92041V4.43896C73.1274 5.2168 73.4966 5.79248 74.2173 5.79248C74.9292 5.79248 75.2939 5.22119 75.2939 4.43896V3.92041C75.2939 3.14258 74.9116 2.5625 74.2173 2.5625Z" fill="black"/>
<path d="M77.5308 6.5V1.85498H78.4888V2.68994H78.5371C78.6558 2.3252 78.9941 1.78467 79.9346 1.78467C80.8706 1.78467 81.499 2.30322 81.499 3.3623V6.5H80.5234V3.64795C80.5234 2.94043 80.1543 2.61523 79.605 2.61523C78.8843 2.61523 78.5063 3.16895 78.5063 3.92041V6.5H77.5308Z" fill="black"/>
<path d="M85.2739 1.88574V0.725586H86.2275V1.88574H87.269V2.65039H86.2275V5.11572C86.2275 5.62109 86.4165 5.76172 86.9395 5.76172C87.0713 5.76172 87.2471 5.75293 87.3218 5.74414V6.49121C87.2427 6.50439 86.9175 6.53076 86.6978 6.53076C85.5684 6.53076 85.2607 6.12646 85.2607 5.19482V2.65039H84.5532V1.88574H85.2739Z" fill="black"/>
<path d="M88.4995 6.5V0.185059H89.4707V2.68994H89.519C89.6201 2.36035 89.998 1.78467 90.9297 1.78467C91.835 1.78467 92.481 2.30762 92.481 3.3667V6.5H91.5098V3.65234C91.5098 2.94482 91.1187 2.61523 90.5649 2.61523C89.8662 2.61523 89.4707 3.16455 89.4707 3.92041V6.5H88.4995Z" fill="black"/>
<path d="M95.7549 6.5791C94.4893 6.5791 93.7026 5.80127 93.7026 4.4917V3.86328C93.7026 2.54492 94.564 1.77588 95.6978 1.77588C96.8623 1.77588 97.6841 2.58447 97.6841 3.86328V4.4082H94.6694V4.63672C94.6694 5.30469 95.0649 5.79688 95.7505 5.79688C96.2603 5.79688 96.6118 5.55518 96.6777 5.26514H97.6313C97.5742 5.80127 97.0073 6.5791 95.7549 6.5791ZM94.6694 3.771H96.7305V3.70947C96.7305 3.01074 96.3218 2.54492 95.7021 2.54492C95.0825 2.54492 94.6694 3.01074 94.6694 3.70947V3.771Z" fill="black"/>
<path d="M30.2061 22.5H28.1758L32.3066 10.5029H34.5391L38.6611 22.5H36.5518L35.4883 19.1777H31.2783L30.2061 22.5ZM33.4316 12.5771H33.3525L31.7266 17.6484H35.04L33.4316 12.5771Z" fill="black"/>
<path d="M44.2644 22.6318C43.0603 22.6318 42.1462 22.0605 41.654 21.208H41.5837V25.585H39.6325V13.21H41.531V14.5723H41.6013C42.1111 13.6846 43.0603 13.0869 44.3083 13.0869C46.3913 13.0869 47.8767 14.6602 47.8767 17.4375V18.2637C47.8767 21.0234 46.4089 22.6318 44.2644 22.6318ZM43.8161 21.0234C45.0554 21.0234 45.8991 20.0303 45.8991 18.1582V17.5078C45.8991 15.7061 45.1081 14.6777 43.781 14.6777C42.4187 14.6777 41.5661 15.7852 41.5661 17.499V18.1582C41.5661 19.916 42.4275 21.0234 43.8161 21.0234Z" fill="black"/>
<path d="M54.183 22.6318C52.9789 22.6318 52.0649 22.0605 51.5727 21.208H51.5024V25.585H49.5512V13.21H51.4496V14.5723H51.52C52.0297 13.6846 52.9789 13.0869 54.227 13.0869C56.31 13.0869 57.7953 14.6602 57.7953 17.4375V18.2637C57.7953 21.0234 56.3276 22.6318 54.183 22.6318ZM53.7348 21.0234C54.9741 21.0234 55.8178 20.0303 55.8178 18.1582V17.5078C55.8178 15.7061 55.0268 14.6777 53.6996 14.6777C52.3373 14.6777 51.4848 15.7852 51.4848 17.499V18.1582C51.4848 19.916 52.3461 21.0234 53.7348 21.0234Z" fill="black"/>
<path d="M61.8387 19.1689H63.7899C63.8778 20.2061 64.7919 21.0938 66.4882 21.0938C68.0438 21.0938 68.9667 20.3643 68.9667 19.2305C68.9667 18.3164 68.3514 17.8242 67.0682 17.5166L65.0995 17.0244C63.5526 16.6641 62.1639 15.7412 62.1639 13.79C62.1639 11.4961 64.1678 10.2393 66.4969 10.2393C68.826 10.2393 70.7684 11.4961 70.8124 13.7373H68.8964C68.8085 12.7178 68.0262 11.874 66.4706 11.874C65.0995 11.874 64.1678 12.5244 64.1678 13.6406C64.1678 14.4229 64.7128 14.9854 65.829 15.2402L67.7889 15.7236C69.5907 16.1631 70.9618 17.0156 70.9618 19.0547C70.9618 21.4102 69.0546 22.7373 66.3387 22.7373C62.9989 22.7373 61.8827 20.7861 61.8387 19.1689Z" fill="black"/>
<path d="M73.3395 13.21V10.9512H75.2555V13.21H77.066V14.7744H75.2555V19.7314C75.2555 20.7422 75.6334 21.0234 76.6793 21.0234C76.8463 21.0234 77.0045 21.0234 77.1188 21.0059V22.5C76.9605 22.5264 76.5914 22.5615 76.1959 22.5615C73.9371 22.5615 73.3131 21.7529 73.3131 19.8896V14.7744H72.0299V13.21H73.3395Z" fill="black"/>
<path d="M82.3353 13.0518C85.0071 13.0518 86.4573 14.9326 86.4573 17.4639V18.2109C86.4573 20.8301 85.0159 22.6582 82.3353 22.6582C79.6546 22.6582 78.1956 20.8301 78.1956 18.2109V17.4639C78.1956 14.9414 79.6634 13.0518 82.3353 13.0518ZM82.3353 14.6162C80.8851 14.6162 80.1644 15.8027 80.1644 17.4902V18.2021C80.1644 19.8633 80.8763 21.085 82.3353 21.085C83.7943 21.085 84.4974 19.8721 84.4974 18.2021V17.4902C84.4974 15.7939 83.7855 14.6162 82.3353 14.6162Z" fill="black"/>
<path d="M88.1055 22.5V13.21H90.0567V14.4316H90.127C90.3643 13.8516 91.0586 13.0781 92.3506 13.0781C92.6055 13.0781 92.8252 13.0957 93.0098 13.1309V14.8535C92.8428 14.8096 92.5 14.7832 92.1748 14.7832C90.6104 14.7832 90.083 15.75 90.083 16.998V22.5H88.1055Z" fill="black"/>
<path d="M97.7429 22.6582C95.2556 22.6582 93.6736 21.0146 93.6736 18.2637V17.3232C93.6736 14.7305 95.2205 13.0518 97.6638 13.0518C100.142 13.0518 101.636 14.792 101.636 17.4111V18.2988H95.5984V18.5186C95.5984 20.083 96.4421 21.1201 97.7693 21.1201C98.7625 21.1201 99.4392 20.6279 99.6765 19.8281H101.531C101.25 21.3311 100.037 22.6582 97.7429 22.6582ZM95.5984 16.9365H99.7293V16.9189C99.7293 15.6006 98.9119 14.5635 97.6726 14.5635C96.4158 14.5635 95.5984 15.6006 95.5984 16.9189V16.9365Z" fill="black"/>
</svg>
