<svg width="204" height="180" viewBox="0 0 204 180" fill="none" xmlns="http://www.w3.org/2000/svg">
<path d="M81.6828 31.733C80.9405 28.2192 79.8612 24.7852 78.46 21.4785C77.9282 20.2138 77.4547 18.8871 76.6918 17.7672C73.8355 13.5748 69.9099 10.5268 65.5729 8.03135C60.3113 4.99653 54.5216 3.24142 48.6117 2.01809C42.9104 0.836114 37.0813 0.576792 31.2804 0.326866C25.1201 0.0255069 18.9453 0.394732 12.8648 1.42804C9.6966 1.97675 6.53964 2.55552 3.46913 3.52516C2.21198 3.9179 1.28744 4.54178 1.38703 6.0714C1.43589 6.82306 1.33066 7.57472 1.30999 8.32637C1.0751 16.4931 1.59938 24.6524 1.56555 32.8191C1.52609 42.0776 1.75347 51.3362 2.15373 60.5909C2.77008 74.9852 2.04662 89.37 1.7779 103.757C1.57871 114.325 1.27241 124.895 0.734976 135.456C0.483171 140.394 0.625981 145.342 0.377935 150.277C0.0171395 157.451 0.672964 164.598 0.981143 171.748C1.15215 175.694 3.73784 178.808 7.93397 179.591C9.59137 179.901 11.2319 179.759 12.8799 179.591C13.7292 179.403 14.697 179.623 15.366 178.84C16.8317 178.543 17.9968 177.733 18.9758 176.65C20.9827 174.418 21.8152 171.703 22.0181 168.771C22.1234 167.283 21.9223 165.783 22.1177 164.293C22.0895 163.166 22.082 162.038 22.0313 160.911C21.7532 154.661 21.4688 148.411 21.1782 142.163C20.7384 132.5 20.8399 122.83 20.8023 113.164C20.8023 111.442 20.9771 109.732 21.1387 108.02C21.2796 106.517 21.5296 105.029 21.3623 103.531C21.3078 103.043 21.4206 102.992 21.7964 102.902C27.4225 101.556 32.7931 99.5004 38.0848 97.1853C44.177 94.5226 50.2504 91.8335 55.8126 88.1485C62.9891 83.3943 68.9553 77.3773 73.9257 70.3869C77.1822 65.8055 79.9107 60.948 80.9781 55.3068C81.6001 52.0126 81.9327 48.6903 82.333 45.3718C82.867 40.8206 82.6473 36.2126 81.6828 31.733ZM36.7713 52.7512C36.7713 51.3925 38.0134 50.0865 39.2762 50.0978C40.7701 50.1128 41.86 51.2497 41.8769 52.8075C41.8938 54.3109 40.8359 55.4383 39.3589 55.4816C37.9345 55.521 36.7581 54.2789 36.7656 52.7512H36.7713ZM32.1016 54.9422C30.8125 54.961 29.6211 53.8147 29.6155 52.5369C29.6047 52.2021 29.6613 51.8686 29.7819 51.5561C29.9025 51.2436 30.0847 50.9586 30.3177 50.7179C30.5506 50.4772 30.8296 50.2858 31.138 50.1551C31.4464 50.0244 31.7779 49.957 32.1129 49.9569C33.603 49.923 34.693 50.9491 34.7249 52.4148C34.7568 53.8805 33.6801 54.9197 32.096 54.9422H32.1016ZM47.1084 54.5288C45.8099 54.4912 44.5415 53.2266 44.5678 51.9995C44.5745 51.6543 44.6503 51.3139 44.7909 50.9985C44.9315 50.6831 45.134 50.3992 45.3863 50.1635C45.6386 49.9278 45.9357 49.7452 46.2599 49.6264C46.5842 49.5076 46.9289 49.4552 47.2738 49.4721C47.9158 49.5167 48.5162 49.8058 48.9514 50.2798C49.3866 50.7539 49.6235 51.3767 49.6133 52.0202C49.5551 53.3919 48.3787 54.5664 47.1028 54.5288H47.1084ZM57.2558 44.87C57.3197 46.2174 56.0005 47.4276 54.4145 47.4783C53.0991 47.5196 52.0224 46.4072 51.9717 44.9565C51.9228 43.6674 53.1593 42.3896 54.5029 42.3445C55.8615 42.2975 57.1825 43.5058 57.2445 44.87H57.2558ZM53.8733 34.0631C54.2226 34.0542 54.57 34.1159 54.8948 34.2446C55.2195 34.3733 55.515 34.5664 55.7633 34.8121C56.0116 35.0578 56.2077 35.3511 56.3399 35.6745C56.4721 35.9978 56.5375 36.3446 56.5323 36.6939C56.5323 38.2686 55.574 39.1368 53.7963 39.1537C52.5298 39.1668 51.4173 37.9961 51.4248 36.6601C51.4323 35.324 52.5824 34.0894 53.8583 34.0631H53.8733ZM47.131 47.3242C46.7878 47.3265 46.4476 47.2602 46.1304 47.1293C45.8131 46.9984 45.5252 46.8055 45.2835 46.5619C45.0418 46.3182 44.8512 46.0288 44.7228 45.7105C44.5944 45.3923 44.5309 45.0516 44.5359 44.7084C44.5697 43.4475 45.8137 42.3163 47.1667 42.3182C47.5083 42.3218 47.8458 42.3934 48.1594 42.529C48.473 42.6645 48.7565 42.8612 48.9932 43.1075C49.2299 43.3538 49.4151 43.6449 49.5381 43.9637C49.661 44.2824 49.7192 44.6225 49.7092 44.964C49.6735 46.1084 48.3675 47.3073 47.116 47.3242H47.131ZM49.1774 36.9758C49.1831 37.3116 49.1219 37.6453 48.9974 37.9573C48.8729 38.2692 48.6875 38.5533 48.4521 38.7929C48.2167 39.0325 47.9359 39.2229 47.6262 39.3529C47.3165 39.4829 46.984 39.55 46.648 39.5502C45.3627 39.5671 44.145 38.3438 44.1319 37.0228C44.1187 35.6491 45.2143 34.6231 46.6932 34.6268C48.1194 34.6287 49.1511 35.6059 49.1623 36.9758H49.1774ZM46.1595 26.3417C46.4873 26.3383 46.8124 26.401 47.1155 26.5259C47.4186 26.6508 47.6935 26.8355 47.9237 27.0689C48.1539 27.3023 48.3348 27.5796 48.4556 27.8844C48.5764 28.1891 48.6346 28.5151 48.6268 28.8428C48.6061 30.2954 47.5707 31.3045 46.1219 31.2857C44.7464 31.2651 43.5456 30.1188 43.5531 28.8428C43.5539 28.507 43.6222 28.1747 43.7539 27.8657C43.8855 27.5566 44.0779 27.2772 44.3196 27.044C44.5612 26.8107 44.8473 26.6284 45.1608 26.5077C45.4742 26.3871 45.8087 26.3306 46.1444 26.3417H46.1595ZM39.528 47.7959C38.1261 47.8316 36.8483 46.6139 36.8427 45.2346C36.8526 44.5551 37.1312 43.9072 37.6175 43.4325C38.1038 42.9578 38.7582 42.695 39.4378 42.7015C40.7532 42.7015 42.0216 44.0169 42.0479 45.3868C42.0554 46.612 40.8528 47.762 39.5129 47.7959H39.528ZM39.2273 40.2793C37.9288 40.2643 36.7318 39.0278 36.7469 37.7161C36.7619 36.4778 37.9702 35.2488 39.201 35.2225C40.4732 35.1943 41.8168 36.5379 41.7923 37.8101C41.7579 38.4729 41.4717 39.0976 40.9922 39.5565C40.5126 40.0154 39.876 40.274 39.2123 40.2793H39.2273ZM39.1634 26.2271C40.4788 26.2271 41.6721 27.5556 41.6552 28.9894C41.6383 30.2954 40.4243 31.4323 39.0638 31.4022C37.7033 31.3722 36.4838 30.177 36.4988 28.9255C36.5049 28.2207 36.7847 27.5458 37.2791 27.0433C37.7735 26.5409 38.4437 26.2502 39.1484 26.2327L39.1634 26.2271ZM32.5695 47.7714C31.1245 47.7808 30.0609 46.7454 30.0458 45.3285C30.0327 44.0131 31.2184 42.8725 32.6033 42.8857C33.9187 42.8857 35.1101 44.0564 35.0932 45.3079C35.0799 45.9701 34.8057 46.6004 34.3304 47.0616C33.855 47.5229 33.2168 47.778 32.5545 47.7714H32.5695ZM32.4117 40.067C30.9779 40.035 29.8203 38.8944 29.8279 37.5188C29.8279 36.2467 31.0944 35.029 32.391 35.0421C33.7289 35.0572 34.9692 36.3369 34.9203 37.656C34.8583 38.932 33.6406 40.0951 32.3966 40.067H32.4117ZM32.0584 26.3887C33.4753 26.368 34.8564 27.6797 34.894 29.0796C34.9316 30.4288 33.6538 31.7574 32.3158 31.7612C30.9309 31.7612 29.5159 30.2578 29.5272 28.7771C29.5197 27.5481 30.7223 26.4056 32.0434 26.3887H32.0584ZM26.0132 35.1849C26.3725 35.1849 26.7283 35.256 27.0601 35.3939C27.3919 35.5319 27.6932 35.7341 27.9465 35.9889C28.1999 36.2436 28.4005 36.546 28.5366 36.8786C28.6727 37.2111 28.7418 37.5673 28.7398 37.9266C28.7605 39.1913 27.5409 40.3902 26.1992 40.4221C24.7824 40.4578 23.4989 39.1537 23.4876 37.6692C23.4632 36.3669 24.6583 35.1906 25.9982 35.1849H26.0132ZM25.4927 42.7842C26.8851 42.7504 28.2268 44.0225 28.2644 45.415C28.2964 46.5819 26.8644 47.9537 25.5904 47.9781C24.896 47.9854 24.2263 47.7207 23.7245 47.2407C23.2227 46.7607 22.9286 46.1034 22.9051 45.4094C22.8468 44.1804 24.1923 42.8142 25.4776 42.7842H25.4927Z" fill="white"/>
<path d="M112.487 142.574C114.42 140.856 116.35 139.133 118.291 137.423C119.795 136.092 121.497 135.422 123.544 135.974C126.565 136.788 128.446 140.429 127.328 143.35C126.992 144.294 126.423 145.139 125.673 145.804C123.664 147.542 121.704 149.34 119.721 151.111C119.47 151.336 119.158 151.471 119.533 151.904C121.676 154.279 123.378 156.977 125.267 159.55C126.415 161.109 127.591 162.658 128.621 164.295C130.092 166.632 129.73 169.28 127.815 171.247C125.87 173.251 122.503 173.26 120.578 171.247C119.06 169.656 117.994 167.724 116.694 165.967C115.061 163.763 113.43 161.555 111.763 159.3C111.406 159.629 111.519 160.023 111.508 160.362C111.429 162.925 111.389 165.49 111.297 168.053C111.194 170.979 108.929 173.072 105.944 173.049C103.072 173.027 100.759 170.845 100.748 167.976C100.723 162.338 101.03 156.722 101.259 151.095C101.447 146.659 101.644 142.22 101.533 137.778C101.499 137.311 101.411 136.85 101.27 136.404C100.577 133.794 101.366 131.173 103.26 129.839C105.434 128.309 108.161 128.672 109.937 130.639C111.658 132.546 112.177 134.831 112.216 137.288C112.242 139.028 112.216 140.768 112.216 142.508L112.487 142.574Z" fill="white"/>
<path d="M96.3859 116.43C95.8837 113.349 95.1717 110.306 94.2549 107.322C93.1011 103.663 91.767 100.061 90.7785 96.3513C89.3241 90.9018 88.2079 85.349 86.4903 79.9615C86.4296 79.7879 86.4053 79.6037 86.4189 79.4203C86.5347 78.3772 86.3341 77.3233 85.8432 76.3957C85.3522 75.4681 84.5936 74.7096 83.666 74.2188C81.9879 73.3243 79.3966 73.6137 77.9308 74.822C76.8203 75.739 76.0705 76.9003 75.4334 78.1706C71.2486 86.514 68.646 95.4212 66.0622 104.336C65.1226 107.598 64.619 110.975 63.6193 114.224C63.1457 115.682 62.8844 117.201 62.8432 118.734C62.7981 119.147 62.9635 119.814 63.1514 120.478C63.4011 121.367 63.9601 122.137 64.7278 122.651C65.4954 123.164 66.4211 123.386 67.3381 123.278C69.2492 123.09 70.621 121.637 70.7525 119.662C70.7607 119.1 70.8236 118.54 70.9404 117.99C71.5042 115.879 72.0679 113.771 72.5772 111.646C72.6974 111.138 72.953 110.99 73.3777 110.933C74.306 110.809 75.2399 110.721 76.1588 110.558C79.3533 109.994 82.4821 109.163 85.5977 108.284C86.1765 108.12 86.4133 108.231 86.5617 108.801C86.8436 109.885 87.1931 110.952 87.49 112.035C88.0951 114.235 88.407 116.49 88.8054 118.732C89.217 121.03 92.0094 122.302 94.0933 121.278C95.9292 120.376 96.7636 118.661 96.3859 116.43ZM83.6641 100.72C83.3108 101.162 82.3487 101.115 81.6572 101.284C79.5131 101.799 77.3878 102.402 74.9731 102.725C76.824 98.1459 78.2221 93.5458 80.9863 89.3835C81.7925 92.578 82.5723 95.6072 83.3108 98.6476C83.4912 99.3467 84.0831 100.202 83.6641 100.724V100.72Z" fill="white"/>
<path d="M64.3261 152.916C64.4351 146.131 66.1752 139.843 70.1871 134.287C71.433 132.56 72.8179 130.949 74.9057 130.128C75.9035 129.735 76.9126 129.604 77.9273 129.953C78.6508 130.205 79.3216 130.141 80.032 129.927C82.2738 129.254 84.5419 129.121 86.7424 130.027C89.08 130.987 90.5927 132.845 90.837 135.602C91.0494 138.015 90.2225 140.033 88.0521 141.335C87.465 141.704 86.7791 141.884 86.0866 141.852C85.0117 141.79 83.9763 142.04 82.9334 142.228C82.2625 142.356 81.8416 142.792 81.477 143.32C79.6749 145.926 78.9176 148.923 78.2468 151.951C77.7643 154.13 77.8838 156.4 78.5925 158.516C79.1413 160.207 79.6956 160.565 81.3699 159.991C83.467 159.275 85.4834 158.289 87.0449 156.71C89.4258 154.305 92.6823 154.493 94.7494 156.509C96.9142 158.621 97.0307 162.271 94.9711 164.507C93.1427 166.491 90.8239 167.805 88.4543 169.017C87.8088 169.325 87.2332 169.763 86.763 170.302C85.6168 171.659 84.089 172.334 82.3433 172.065C76.0876 171.103 70.702 168.56 67.0245 163.16C64.918 160.085 64.1758 156.615 64.3261 152.916Z" fill="white"/>
<path d="M147.432 55.2388C144.301 49.8288 141.388 44.3116 138.767 38.6329C136.608 33.9519 134.069 29.4645 131.557 24.964C129.629 21.5007 127.706 18.0112 124.792 15.2375C123.424 13.9372 122.377 13.1705 120.44 14.8166C119.709 15.4554 119.096 16.2189 118.632 17.0716C117.525 19.0109 117.065 21.2057 116.234 23.2464C112.934 31.3549 110.725 39.7829 108.742 48.2898C108.235 50.4677 109.586 52.5009 111.717 52.997C113.669 53.4518 115.887 52.1533 116.343 50.2741C116.556 49.3966 116.787 48.519 116.907 47.6264C116.98 47.1172 117.204 47.0383 117.638 47.0232C122.698 46.8598 127.729 46.1701 132.797 46.1626C133.257 46.1043 133.661 46.0179 133.924 46.6399C135.704 50.9412 138.162 54.9081 140.037 59.1719C140.4 59.9931 140.936 60.741 141.4 61.5171C141.652 61.954 142.052 62.287 142.527 62.4566C144.108 62.9997 147.063 62.7253 148.123 60.3106C148.943 58.4465 148.341 56.8136 147.432 55.2388ZM121.124 38.8696L124.271 28.1266L129.877 38.3604L121.124 38.8696Z" fill="white"/>
<path d="M32.272 176.957C29.7577 176.748 27.6699 175.841 26.5782 173.386C25.6874 171.378 26.3752 169.286 28.2111 168.065C29.9211 166.937 31.9093 166.806 33.8316 166.439C34.6284 166.289 35.4308 166.152 36.2369 166.063C36.7857 166.005 36.9491 165.78 36.9642 165.227C37.0562 161.687 36.7763 158.165 36.5057 154.642C36.3384 152.398 36.173 150.155 36.034 147.909C35.9983 147.345 35.9062 147.06 35.1959 146.999C32.4486 146.765 30.1222 143.993 30.0283 140.986C29.9118 137.064 31.3681 134.8 35.0644 133.492C37.7346 132.553 40.4706 131.801 43.1747 130.948C43.5949 130.829 44.0052 130.678 44.4018 130.495C46.9838 129.204 49.2218 129.98 50.7514 132.107C52.3487 134.327 53.0064 136.79 52.0311 139.534C51.3377 141.512 49.9378 142.659 48.0511 143.316C46.6079 143.82 46.6154 143.794 46.6906 145.346C46.9932 151.498 47.6903 157.626 47.8312 163.788C47.8425 164.325 48.0342 164.417 48.5002 164.351C49.3665 164.226 50.2365 164.135 51.1047 164.034C55.1674 163.558 58.5217 167.33 57.366 171.092C56.868 172.719 55.7556 173.768 54.0982 174.119C51.6553 174.634 49.1448 174.739 46.6662 175.029C42.2013 175.549 37.7177 175.893 33.3074 176.816C32.9747 176.893 32.6309 176.912 32.272 176.957Z" fill="white"/>
<path d="M121.747 91.4694C121.473 85.832 118.964 81.2375 114.343 77.87C110.54 75.0983 106.287 73.8712 101.601 74.0065C100.396 74.0403 99.2576 74.1437 98.1883 74.7826C96.2528 75.942 95.3847 78.4977 96.5685 80.1758C97.2901 81.1961 97.5231 82.2428 97.5081 83.4229C97.4931 84.603 97.5081 85.7361 97.4743 86.8918C97.3465 90.5787 97.1962 94.2656 97.0797 97.2985C97.0797 102.925 97.0797 107.897 97.0797 112.869C97.0806 114.371 97.3347 115.862 97.8313 117.279C99.0001 120.662 103.146 122.678 106.445 121.265C109.7 119.869 112.566 117.781 114.68 114.934C119.825 107.985 122.166 100.083 121.747 91.4694ZM113.988 94.88C113.588 99.3655 112.406 103.616 110.23 107.604C109.011 109.919 107.173 111.851 104.921 113.183C104.81 108.152 104.733 103.223 104.839 98.2813C104.944 93.1569 105.47 88.0437 105.293 82.9137C105.269 82.1902 105.446 82.068 106.131 82.3086C111.936 84.3512 114.544 88.6206 113.988 94.88Z" fill="white"/>
<path d="M148.601 174.333C146.479 174.31 144.352 174.37 142.261 173.861C138.638 172.98 136.768 170.546 136.097 167.01C135.641 164.608 135.533 162.169 135.368 159.743C134.992 154.348 134.774 148.944 134.357 143.552C134.098 140.2 133.833 136.842 132.878 133.567C132.514 132.32 132.635 130.982 133.216 129.82C133.798 128.659 134.798 127.761 136.015 127.307C138.57 126.377 141.383 127.527 142.723 129.951C143.881 132.046 144.061 134.361 144.345 136.645C145.217 143.659 145.544 150.717 145.88 157.774C145.963 159.491 146.124 161.203 146.215 162.921C146.237 163.362 146.378 163.526 146.821 163.52C150.228 163.477 153.632 163.364 157.021 162.968C159.036 162.731 161.041 162.475 163.035 162.131C165.517 161.705 167.774 163.161 168.64 165.531C169.042 166.657 169.063 167.884 168.698 169.023C168.334 170.162 167.605 171.15 166.624 171.833C165.002 172.972 163.104 173.053 161.285 173.307C157.087 173.895 152.867 174.417 148.601 174.333Z" fill="white"/>
<path d="M99.6502 35.3202C99.7446 41.6046 99.5188 47.8897 98.9737 54.1511C98.9229 54.7468 99.1841 54.7468 99.6069 54.7261C102.852 54.5608 106.099 54.3879 109.347 54.2488C112.594 54.1098 115.846 53.9407 119.097 53.9031C121.916 53.8711 123.532 55.8273 123.183 58.6009C123.111 59.1647 123.132 59.7284 123.074 60.2921C122.899 62.0134 122.418 62.6354 120.73 62.9775C118.594 63.4115 116.446 63.8475 114.279 64.0767C110.491 64.4789 106.688 64.8284 102.867 64.6405C100.186 64.5146 97.4722 64.5334 94.8583 63.8738C93.1277 63.4378 91.3782 62.953 90.1924 61.3501C89.3844 60.2583 89.065 59.082 88.9654 57.7797C88.6797 53.9951 88.9541 50.2162 89.0762 46.4354C89.2397 41.403 89.702 36.3895 90.1285 31.3759C90.4311 27.7943 90.4743 24.2051 90.6923 20.6235C90.7825 19.2179 90.8577 17.7484 92.0284 16.651C93.1277 15.6212 94.3566 14.9071 95.8862 15.204C97.5643 15.5291 98.9549 16.3503 99.3608 18.1787C99.9828 20.9805 99.9621 23.8349 99.8155 26.6743C99.6859 29.3765 99.684 32.058 99.6502 35.3202Z" fill="white"/>
<path d="M152.591 143.884V134.785C152.59 134.228 152.39 133.689 152.027 133.267C150.772 131.66 151.503 128.924 153.489 127.543C155.744 125.972 158.281 125.008 160.885 124.218C165.583 122.792 170.401 121.909 175.253 121.227C176.746 120.989 178.275 121.162 179.677 121.729C181.049 122.305 182.12 123.256 182.193 124.825C182.266 126.395 181.755 127.832 180.286 128.749C178.735 129.715 176.958 129.946 175.24 130.369C170.249 131.594 165.162 132.385 160.184 133.682C159.574 133.842 159.363 134.058 159.41 134.674C159.487 135.672 159.504 136.673 159.519 137.681C159.519 138.137 159.632 138.212 160.119 138.13C163.379 137.581 166.613 136.873 169.92 136.626C171.611 136.499 173.015 137.19 173.658 138.663C174.222 139.966 173.806 141.683 172.707 142.683C171.891 143.425 170.852 143.378 169.888 143.491C166.726 143.867 163.603 144.457 160.479 145.051C159.965 145.148 159.698 145.333 159.728 145.96C159.794 147.428 159.78 148.899 159.745 150.369C159.732 150.955 159.846 151.203 160.496 151.179C167.017 150.936 173.474 151.93 179.968 152.197C181.813 152.27 183.39 153.856 183.334 155.44C183.258 157.507 181.714 159.052 179.649 158.977C175.93 158.844 172.232 158.428 168.528 158.098C165.968 157.868 163.403 157.96 160.84 157.874C159.557 157.831 158.285 157.759 157.033 157.429C154.337 156.714 152.933 154.916 152.948 152.148C152.955 150.77 152.96 149.392 152.963 148.014C152.965 146.636 152.965 145.258 152.963 143.88L152.591 143.884Z" fill="white"/>
<path d="M131.167 120.429C130.133 120.481 129.097 120.397 128.085 120.179C124.588 119.475 122.553 116.707 123.002 113.135C124.366 102.337 124.976 91.4572 124.829 80.5746C124.808 78.8539 125.12 77.1452 125.746 75.5423C125.939 74.9792 126.271 74.4741 126.712 74.074C127.152 73.6738 127.687 73.3915 128.266 73.2535C131.305 72.4263 134.386 71.7621 137.496 71.2635C139.73 70.9102 141.576 72.2275 141.957 74.2814C142.365 76.4725 141.121 78.3667 138.868 78.8834C136.989 79.3156 135.089 79.6896 133.191 80.0504C132.701 80.1443 132.528 80.3153 132.53 80.8377C132.539 84.8403 132.631 88.8466 132.392 92.8454C132.355 93.4712 132.665 93.3735 133.084 93.3209C135.065 93.0634 137.043 92.727 139.033 92.6274C142.194 92.4696 144.075 95.6172 142.604 98.4152C141.965 99.6235 140.864 100.118 139.638 100.294C137.415 100.621 135.179 100.858 132.943 101.08C132.293 101.146 131.973 101.268 131.943 102.049C131.823 105.361 131.351 108.645 130.97 111.934C130.878 112.721 131.158 112.764 131.755 112.704C135.918 112.291 140.074 111.823 144.158 110.932C145.849 110.556 147.384 110.669 148.583 112.116C148.988 112.585 149.273 113.145 149.413 113.749C149.552 114.353 149.542 114.981 149.383 115.58C149.225 116.179 148.922 116.73 148.502 117.185C148.082 117.641 147.557 117.987 146.973 118.193C145.206 118.841 143.342 119.076 141.499 119.388C138.08 119.95 134.629 120.298 131.167 120.429Z" fill="white"/>
<path d="M163.132 96.4942C163.132 100.908 163.175 104.693 163 108.476C162.963 109.248 163.222 109.438 163.951 109.344C168.625 108.739 173.306 108.182 177.979 107.562C180.986 107.166 183.992 106.875 186.98 106.348C188.589 106.065 190.447 107.536 190.864 109.239C191.342 111.193 190.301 113.226 188.44 113.858C186.384 114.558 184.225 114.729 182.089 114.951C178.828 115.289 175.589 115.77 172.343 116.216C168.382 116.759 164.412 117.195 160.413 117.36C159.064 117.415 157.898 116.984 156.824 116.221C155.615 115.361 155.209 114.137 155.221 112.713C155.256 108.085 155.307 103.455 155.309 98.8263C155.309 92.0031 154.888 85.2006 154.291 78.4094C154.133 76.6373 153.84 74.8785 153.623 73.1121C153.464 71.8192 153.471 70.5508 154.264 69.4177C155.266 67.9895 156.679 67.625 158.306 67.8918C159.686 68.1173 160.905 69.3444 161.125 70.7782C161.739 74.668 162.239 78.5747 162.499 82.504C162.826 87.371 163.102 92.2436 163.132 96.4942Z" fill="white"/>
<path d="M157.01 55.8003C157.474 50.7266 158.355 44.4146 159.338 38.1195C159.426 37.5557 159.3 37.2194 158.831 36.8623C154.279 33.3897 150.012 29.5807 145.744 25.7754C143.713 23.962 141.774 22.0566 139.834 20.1492C138.722 19.0537 138 17.7702 138.344 16.1166C138.65 14.6452 139.532 13.5779 140.932 13.1645C142.27 12.768 143.69 12.7605 144.788 13.8861C147.669 16.8438 150.669 19.677 153.787 22.3854C155.931 24.2533 158.109 26.0798 160.261 27.942C160.757 28.3724 160.824 28.1694 160.898 27.6583C161.386 24.319 161.869 20.9817 162.412 17.6519C162.811 15.209 164.291 14.1435 166.67 14.2168C168.873 14.2844 170.498 16.3609 170.19 18.5764C169.536 23.2743 168.799 27.9721 168.123 32.67C166.932 40.8311 165.633 48.9772 164.825 57.1909C164.581 59.6638 163.598 61.0431 161.741 61.4772C158.979 62.1049 156.705 60.034 157.01 55.8003Z" fill="white"/>
<path d="M203.928 165.215C203.823 165.171 203.785 165.168 203.766 165.147C201.853 163.161 199.653 163.553 198.516 166.128C197.898 167.53 197.576 169.033 197.215 170.521C196.939 171.696 196.563 172.804 195.515 173.556C195.101 173.89 194.573 174.051 194.043 174.003C189.357 173.575 186.117 170.632 185.268 166.019C185.191 165.602 185.24 165.455 185.662 165.139C187.51 163.762 189.706 163.613 191.809 163.095C195.338 162.225 196.637 158.083 194.312 155.251C194.137 155.039 193.878 154.834 193.972 154.528C194.055 154.253 194.348 154.359 194.536 154.366C200.827 154.626 204.574 160.603 203.928 165.215Z" fill="white"/>
<path d="M185.161 164.486C185.537 161.119 186.223 157.954 189.177 155.842C190.06 155.215 191.056 154.882 192.078 154.583C192.225 154.529 192.385 154.52 192.537 154.556C192.69 154.592 192.828 154.672 192.935 154.786C194.42 156.261 194.835 158.024 194.369 160.027C194.129 161.061 193.447 161.701 192.49 162.064C191.901 162.268 191.296 162.419 190.68 162.515C188.751 162.878 186.792 163.186 185.161 164.486Z" fill="white"/>
<path d="M196.445 173.847C198.247 171.857 198.029 169.192 199.001 166.946C199.425 165.965 199.94 165.129 200.978 164.691C201.223 164.555 201.505 164.498 201.784 164.528C202.68 164.716 203.877 166.505 203.731 167.437C203.197 170.857 200.049 173.662 196.445 173.847Z" fill="white"/>
<path d="M58.917 77.2187C57.8468 78.5137 56.5955 79.6479 55.2019 80.5861C51.5207 83.1399 47.8 85.6805 43.5888 87.351C42.9697 87.6264 42.3685 87.9402 41.7886 88.2906C41.4504 88.4785 41.1046 88.9013 40.881 88.1816C40.8715 88.154 40.8589 88.1275 40.8434 88.1027C40.2947 88.3263 40.3849 87.7269 40.1519 87.5615C39.8305 87.3304 39.7178 87.5897 39.6013 87.8058C39.3382 88.2906 38.8853 88.3695 38.502 88.1177C37.8311 87.6817 37.5229 88.0557 37.2054 88.5405C36.6886 88.6006 36.3898 87.7513 35.781 88.2042C35.5517 88.2323 35.4371 88.0162 35.2567 87.9523C34.4712 87.5389 35.5461 87.0879 35.1609 86.6163C34.7663 86.4922 34.6178 87.2232 34.0503 87.0428C34.4468 86.4979 34.3773 85.673 35.3112 85.6203C35.5517 85.6072 35.5968 85.3648 35.5498 85.1036C35.2849 83.6735 35.7209 82.1947 35.2529 80.7815C35.2385 80.7537 35.2312 80.7227 35.2318 80.6913C35.2323 80.6599 35.2408 80.6292 35.2563 80.6019C35.2718 80.5746 35.2939 80.5517 35.3205 80.5351C35.3472 80.5186 35.3776 80.509 35.4089 80.5072C35.4554 80.4971 35.5037 80.4984 35.5496 80.5109C35.5955 80.5234 35.6377 80.5468 35.6727 80.579C35.7077 80.6113 35.7344 80.6514 35.7507 80.6962C35.7669 80.7409 35.7721 80.7888 35.766 80.836C35.6551 82.6005 36.061 84.3651 35.7791 86.1239C35.6795 86.7478 36.2019 86.947 36.5045 87.0184C36.854 87.0992 37.444 87.1537 37.3745 86.2968C37.3106 85.5452 37.0231 84.7014 37.5812 83.9517C37.6169 84.4628 38.1562 84.8912 37.7898 85.455C37.7436 85.519 37.7188 85.5959 37.7188 85.6748C37.7188 85.7537 37.7436 85.8307 37.7898 85.8947C37.927 86.0638 38.0585 85.9229 38.1957 85.8571C38.586 85.6741 39.0124 85.5809 39.4434 85.5846C39.87 85.5846 40.383 85.1336 40.3511 84.9288C40.1631 84.0024 40.9505 84.0813 41.4278 83.728C41.2963 84.2918 41.5424 84.521 42.0216 84.5567C42.2847 84.8255 42.5553 84.9495 42.9612 84.5041C42.576 84.7484 42.2922 84.8311 42.0216 84.5586C42.2095 84.2166 41.7491 83.6604 42.5365 83.4706C43.0382 83.3484 42.3373 83.0534 42.3599 82.8336C43.3671 82.3431 43.9045 82.7997 44.3254 83.6848C44.3967 83.857 44.5295 83.9966 44.6979 84.0765C44.8663 84.1564 45.0584 84.1708 45.2368 84.117C45.1861 83.6472 44.6073 83.3184 44.8779 82.6889C44.9907 82.4295 44.4232 81.9673 43.9383 82.0274C43.5324 82.08 43.4235 81.8113 43.5625 81.6328C43.7016 81.4543 43.9064 80.9807 44.1826 81.1517C44.8685 81.5783 45.639 81.3397 46.3361 81.5539C46.4639 81.6647 46.524 81.9015 46.7608 81.817C46.8848 81.7737 46.9844 81.5933 46.9487 81.5351C46.8266 81.3716 46.7928 81.6347 46.6744 81.6384C46.6163 81.6511 46.5561 81.6502 46.4984 81.6359C46.4407 81.6216 46.3871 81.5941 46.3418 81.5558C46.1144 80.6669 47.0934 80.3681 47.2813 79.6597C47.3546 79.3816 47.7229 79.6202 47.9353 79.7217C48.3111 79.9096 48.6587 79.9228 48.9519 79.5808C49.1248 79.3797 49.2037 79.1598 48.8034 79.2049C48.4445 79.2519 48.3412 79.0433 48.5554 78.8667C49.3446 78.2221 49.2168 77.2807 49.3897 76.3975L50.1151 76.7376C49.9647 76.9519 49.4461 76.95 49.6622 77.2882C49.7956 77.4949 49.7937 77.9591 50.2447 77.8914C50.3876 77.8689 50.598 77.7561 50.4815 78.0549C50.365 78.3537 50.5435 78.3631 50.7446 78.3405C50.9851 78.3124 51.267 78.1113 51.1392 77.9384C50.6619 77.2957 50.7465 76.8109 51.1655 76.1269C51.3779 75.7868 51.2031 75.114 51.1956 74.5954C51.1693 72.6787 51.1261 70.7638 51.3835 68.8377C51.4286 69.6627 51.6259 70.5139 51.4831 71.305C51.2936 72.2554 51.3381 73.2376 51.6128 74.167C51.8514 74.881 51.1317 75.4185 51.5902 76.033C51.686 76.1626 51.6015 76.296 51.9059 76.3017C52.4039 76.3129 52.7177 76.1833 52.8755 75.7379C52.9244 75.5951 53.1048 75.3771 52.8755 75.2625C52.7853 75.2155 52.6031 75.3546 52.4584 75.4091C52.4361 75.367 52.4227 75.3209 52.419 75.2735C52.4152 75.226 52.4212 75.1784 52.4365 75.1333C52.4518 75.0883 52.4761 75.0468 52.508 75.0115C52.5399 74.9762 52.5786 74.9478 52.6219 74.928C53.2345 74.7401 53.3735 74.4827 52.8267 74.0354C52.6519 73.8926 52.6143 73.7404 52.8868 73.6295C53.0973 73.545 53.1781 73.2537 53.0559 73.1729C52.2799 72.628 52.8286 72.3743 53.195 71.9364C53.4036 71.6884 53.2833 71.1585 53.2889 70.7545C53.2889 70.046 53.2889 69.3395 53.2889 68.4713C53.6911 69.3864 53.6648 70.2076 53.8189 70.9968C53.8527 71.1848 53.9091 71.4084 54.1552 71.3614C54.4653 71.3032 54.3244 71.1021 54.2323 70.9424C54.0763 70.6793 54.315 70.5797 54.4559 70.5289C55.8239 70.0441 55.309 68.8565 55.3955 67.9339C55.4819 67.0112 55.2076 66.1036 55.3955 64.9667C55.7469 65.5511 55.6905 66.0002 55.7544 66.4305C55.7844 66.6372 55.3522 67.3513 56.2091 67.0056C56.382 66.9341 56.397 67.2386 56.0363 67.6952C55.5063 68.3679 55.6322 68.7607 56.4121 69.035C56.7992 69.1722 56.9758 69.1158 57.1055 68.7174C57.2483 68.2852 57.2088 67.87 57.1919 67.4302C57.1675 66.8252 56.6996 66.1148 57.5772 65.6507C57.9962 65.4252 57.7876 64.9817 57.4625 64.822C56.6733 64.4349 57.1468 64.0703 57.4437 63.5893C57.7049 63.9407 57.6561 64.48 58.0902 64.5683C58.496 64.6491 59.0297 64.978 59.3116 64.6322C59.7025 64.1624 59.5202 63.4934 59.43 62.9165C59.3755 62.5727 59.2966 62.1217 58.7403 62.2438C58.5036 62.2945 58.3645 62.2269 58.3908 61.977C58.4171 61.727 58.5637 61.789 58.7667 61.8341C59.2533 61.9243 59.2928 61.4734 59.3492 61.1652C59.6084 59.7196 59.6141 58.24 59.3661 56.7924C59.2684 56.2287 59.5427 55.8209 59.5164 55.3117C59.43 53.6204 59.4826 51.9292 59.4901 50.238C59.4901 49.9448 59.4206 49.6291 59.8659 49.3736C59.8659 50.0557 59.8415 50.7378 59.8659 51.4181C59.9731 53.9418 59.6179 56.4918 60.2887 58.9873C60.4504 59.583 60.3508 60.3027 60.2455 60.9059C60.1572 61.4095 60.4466 61.7252 60.4597 62.1423C60.4533 62.1982 60.4615 62.2547 60.4835 62.3064C60.5056 62.3581 60.5407 62.4031 60.5855 62.4371C60.6303 62.4711 60.6831 62.4927 60.7388 62.5C60.7946 62.5073 60.8512 62.5 60.9032 62.4787C61.0075 62.4374 61.092 62.3576 61.1392 62.2559C61.1864 62.1542 61.1927 62.0382 61.1569 61.9319C61.0817 61.5372 60.922 61.1539 60.8863 60.7593C60.8581 60.4473 60.5612 59.9381 61.3843 60.0377C61.8146 60.0903 61.5835 59.6619 61.4106 59.4382C60.783 58.6471 60.7491 57.7696 61.125 56.892C61.2715 56.5538 61.3523 56.1403 61.2772 55.9111C60.8788 54.7103 61.5609 53.5622 61.3617 52.3933C61.1513 51.1569 61.5177 49.9336 61.3918 48.6952C61.3223 48.0037 61.7432 47.3516 61.8541 46.7071C62.042 45.5589 61.9161 44.3506 61.8541 43.1705C61.824 42.5673 61.5008 42.0036 61.8973 41.3703C62.1754 40.9268 61.6417 40.4739 61.6962 39.9421C61.7789 39.1454 61.5703 38.3298 61.73 37.5199C61.7582 37.3734 61.7413 37.0952 61.6831 37.0765C60.6777 36.7608 61.2809 36.1839 61.5046 35.7611C61.8804 35.062 61.8654 34.5171 61.1701 34.0473C60.8901 33.8594 60.6477 33.6151 60.2756 33.2956C61.4031 33.5869 61.2434 32.9649 61.1907 32.3391C61.1381 31.7134 60.9389 31.129 61.1118 30.4318C61.2715 29.7948 61.326 29.3043 62.2393 29.0807C61.5309 29.699 61.4876 30.3755 61.544 31.082C61.5647 31.3545 61.6286 31.6664 61.9198 31.6157C62.2111 31.5649 62.2694 31.191 62.2055 30.9317C62.1018 30.6331 61.9677 30.3459 61.8052 30.0748C62.6753 30.3679 62.8481 30.7832 62.461 31.4804C62.3976 31.5844 62.3736 31.7078 62.3934 31.828C62.4054 31.8571 62.4241 31.883 62.4481 31.9034C62.472 31.9239 62.5005 31.9384 62.5311 31.9457C62.5617 31.9531 62.5937 31.953 62.6243 31.9456C62.6549 31.9382 62.6833 31.9237 62.7072 31.9032C63.2954 31.3075 63.271 32.1869 63.6017 32.2659C63.7201 31.6777 64.0001 31.1384 63.9174 30.4957C63.8873 30.2514 63.9644 30.0616 63.6862 29.8756C63.4081 29.6896 63.4739 29.6651 63.7746 29.4284C63.9625 29.2799 63.7877 28.8815 64.1654 28.6767C64.1644 28.9002 64.2163 29.1207 64.3169 29.3203C64.4175 29.5199 64.5639 29.6928 64.7442 29.8249C64.9321 29.9602 65.0543 30.2965 65.3474 30.1668C65.5767 30.0654 65.4526 29.7722 65.5052 29.5712C65.6537 29.0074 65.3887 28.4925 65.1463 28.0679C64.8795 27.6112 64.3477 27.459 63.814 28.1768C63.9437 27.1208 63.1864 26.465 63.1939 25.5761C63.1939 25.3506 63.0999 25.0969 63.4326 25.1026C63.7107 25.1026 63.7144 25.3224 63.7126 25.5761C63.7126 26.6547 64.1072 26.993 65.1181 26.869C65.494 26.8239 65.4508 26.589 65.494 26.3409C65.6593 25.2736 65.6631 25.2754 66.0803 24.8207C66.4148 25.7603 66.4993 26.7374 65.8924 27.6526C66.6045 27.9175 66.0464 28.5921 66.3208 28.9886C66.4617 29.1935 66.6459 29.122 66.7793 28.9492C66.8793 28.8264 66.9485 28.6815 66.9812 28.5266C67.0139 28.3717 67.0091 28.2112 66.9672 28.0585C66.6515 27.0512 67.0687 26.356 68.1511 25.6926C67.281 25.734 67.0555 25.3168 66.8564 24.847C67.1382 24.7155 67.3243 25.1345 67.608 24.9729C67.8204 24.8489 67.9838 24.6441 67.8955 24.4449C67.7076 24.0427 67.7527 24.5708 67.6061 24.552C67.281 24.5088 66.4279 23.184 66.5557 22.8889C66.7624 22.4154 67.0912 22.7987 67.36 22.7687C67.4556 22.8672 67.5389 22.977 67.608 23.0957C67.5485 22.9709 67.4641 22.8596 67.36 22.7687C67.5253 22.3928 67.8542 22.0414 67.4107 21.598C67.2453 21.4326 67.3675 20.9685 66.9841 20.9797C66.5463 20.9948 66.7962 21.3894 66.7041 21.6093C66.5162 22.0997 66.0464 22.1035 65.7026 21.8423C65.2158 21.4517 64.7846 20.9965 64.421 20.4893C64.8682 20.4536 65.1106 20.7636 65.432 20.9102C65.7533 21.0568 65.9187 20.7975 65.9656 20.5701C66.0126 20.3427 65.8473 20.1097 65.5729 20.2563C65.1971 20.4554 65.1614 20.1905 65.2741 20.0157C65.6293 19.4689 64.9922 19.0254 65.1651 18.5124C65.1764 18.4805 65.0674 18.3752 65.0655 18.3771C64.3139 18.9108 64.2575 17.7702 63.6637 17.7871C63.2785 17.7871 63.2108 17.4639 63.4927 17.1237C63.7746 16.7836 64.0113 16.3477 64.3082 15.9963C64.7254 15.4964 66.2513 15.9793 66.5632 16.7009C66.6168 16.8595 66.657 17.0223 66.6835 17.1876C67.08 17.3135 66.7699 16.7291 67.1063 16.8588C67.3167 16.9396 67.5629 17.1576 67.4971 17.3286C67.2792 17.8923 67.7696 18.317 67.7414 18.8319C67.3506 18.9127 66.9033 18.4016 66.567 18.9559C66.9653 19.0687 67.3825 19.2603 67.7396 18.83C68.4912 18.6985 67.7583 18.1366 68.0177 17.8603C68.7693 18.6797 68.8783 19.779 68.2751 20.5738C68.1342 20.7618 67.9989 21.0098 68.2619 21.1C68.4705 21.1714 68.8388 21.3255 68.9986 20.9553C69.2259 20.4198 69.5924 19.9161 69.3462 19.0442C69.7596 19.4013 70.0039 19.4482 70.0828 19.9293C70.1486 20.3371 69.9814 21.2597 70.9754 21.0662C71.2197 21.8028 72.163 22.1467 72.2044 22.9152C72.2551 23.8811 72.7362 24.7136 73.0613 25.516C73.7754 27.2861 73.937 29.0995 74.1004 30.9298C74.1512 31.4935 74.3729 31.9934 74.4763 32.5308C74.7168 33.9026 74.3428 35.2575 74.5928 36.6349C74.7391 37.3855 74.7295 38.1581 74.5646 38.9049C74.3241 39.9046 74.7525 40.9118 74.5533 41.9547C74.3842 42.8548 74.2113 43.7944 74.3222 44.7358C74.061 44.9576 74.0779 44.2755 73.7133 44.578C73.3488 44.8805 73.9013 44.7979 73.8223 45.0252C73.4841 46.0813 74.1531 47.1825 73.7303 48.2517C73.687 48.3701 73.7303 48.2217 73.6946 48.3382C73.548 48.729 73.4503 49.3304 72.8922 49.071C72.3942 48.8418 72.6629 48.3344 72.8677 47.9435C72.9495 47.8166 73.0128 47.6787 73.0556 47.5339C72.8677 47.5339 72.8132 47.6805 72.7437 47.8082C72.708 48.3983 72.5238 48.8305 71.8041 48.7985C71.3888 48.7798 71.2629 49.056 71.355 49.4262C71.4828 49.9411 71.3287 50.3883 71.1427 50.8694C70.8702 51.5628 71.2329 52.2148 71.4847 52.8368C71.7366 53.3766 71.8166 53.9808 71.7139 54.5675C71.6162 55.0317 71.3588 55.4094 70.8345 55.3643C70.3102 55.3192 70.2989 54.9001 70.2294 54.4679C70.0505 53.524 69.9424 52.568 69.9062 51.6079C70.1091 52.3595 69.7465 53.0285 69.7371 53.7106C69.7371 54.1503 70.2444 54.56 70.1336 55.1745C70.0302 55.7495 69.7314 56.2249 69.5698 56.7248C69.3307 57.442 69.3527 58.2207 69.6319 58.9234C69.6711 59.0081 69.7007 59.097 69.7202 59.1883C69.7202 59.4946 69.6187 59.7389 69.288 59.8254C68.3352 59.4702 68.2563 58.4611 68.2807 57.8072C68.3127 56.9446 68.0778 56.1441 67.9876 55.3342C67.8692 54.2744 68.1342 53.2296 67.8711 52.4103C67.9105 53.0755 67.9989 53.9643 67.8523 54.8532C67.8279 54.9997 67.9463 55.2102 67.8279 55.3041C67.2792 55.7439 66.9522 56.1009 67.9481 56.3922C68.1774 56.4579 68.136 56.8244 68.1003 57.0762C68.0155 57.475 67.863 57.8563 67.6493 58.2037C67.3449 58.7524 67.204 59.2992 67.4915 59.8949C67.5791 60.0977 67.6097 60.3205 67.5798 60.5394C67.5749 60.6819 67.5395 60.8217 67.4761 60.9494C67.4127 61.0771 67.3227 61.1897 67.2122 61.2798C67.1017 61.3698 66.9732 61.4352 66.8353 61.4715C66.6975 61.5078 66.5534 61.5142 66.4129 61.4903C65.7646 61.4207 65.6274 60.9434 65.6368 60.4041C65.6462 59.9926 65.9318 59.6093 65.7871 59.1752C65.7646 59.3913 65.9055 59.6957 65.7495 59.8103C65.0862 60.3064 65.4808 60.7687 65.7007 61.2817C65.9919 61.9638 66.1235 62.6666 65.5804 63.3149C65.511 63.3807 65.4626 63.4657 65.4415 63.5591C65.4205 63.6524 65.4276 63.7499 65.462 63.8392C66.1611 65.0456 65.1181 66.1994 65.3699 67.4096C65.4695 67.8869 64.9641 68.0616 64.5281 68.0804C63.9813 68.103 63.9643 67.6914 63.9493 67.3062C63.8723 65.8029 64.2988 64.2996 64.1372 62.7963C64.1034 62.4918 64.2011 62.163 63.7614 61.9788C63.6484 62.2999 63.6673 62.6526 63.814 62.9598C64.2105 63.6757 64.4097 64.3616 63.7313 65.0268C63.6712 65.0869 63.6487 65.1245 63.7107 65.164C64.2744 65.5398 63.9474 66.1562 63.8328 66.4399C63.3367 67.6651 63.2691 68.9242 63.2165 70.1982C63.205 70.3574 63.1408 70.5082 63.0339 70.6267C62.927 70.7451 62.7836 70.8245 62.6264 70.8521C62.2882 70.9442 62.1172 70.7 61.9236 70.4932C61.7081 70.2882 61.5506 70.03 61.4668 69.7446C61.383 69.4592 61.3759 69.1568 61.4463 68.8678C61.6192 68.0785 61.7056 67.2724 61.3411 66.4982C61.5985 67.1151 61.6569 67.797 61.5083 68.4487C61.4331 68.8471 61.187 69.3883 61.3373 69.627C62.0664 70.8315 61.1738 71.6583 60.7886 72.6073C60.6928 72.8422 60.6007 73.1259 60.3038 73.0959C60.0069 73.0658 60.0238 72.767 59.928 72.5453C59.6968 72.0454 59.5521 71.647 59.8659 71.087C60.0651 70.73 59.5465 70.5101 59.2383 70.2865C60.1779 70.9292 59.3586 71.803 59.5728 72.5415C59.5578 73.4284 59.2928 74.2985 59.4525 75.2024C59.4692 75.3728 59.4491 75.5449 59.3937 75.707C59.3383 75.8691 59.2488 76.0174 59.1312 76.1419C58.8625 76.4821 58.8832 76.8485 58.917 77.2187Z" fill="white"/>
<path d="M69.6292 59.2252C68.7591 58.3796 69.4413 57.3292 69.2533 56.3934C70.3432 56.0307 69.4751 54.9746 70.0426 54.4071C69.6668 54.1929 69.648 54.7191 69.321 54.58C69.4807 54.0933 69.2721 53.5371 69.6818 53.056C69.943 52.7478 69.7363 52.4434 69.539 52.1296C69.4429 51.9848 69.3958 51.8131 69.4046 51.6396C69.4134 51.466 69.4776 51.2999 69.5878 51.1656C69.7231 51.0021 69.8453 51.2464 69.9787 51.2859C70.4334 51.4212 70.6308 51.9304 70.456 52.1465C69.9618 52.7685 70.1892 53.274 70.4861 53.8227C70.5346 53.9381 70.5597 54.0621 70.5597 54.1873C70.5597 54.3125 70.5346 54.4364 70.4861 54.5518C70.3977 54.8562 70.4861 55.155 70.8074 55.2189C71.1832 55.2941 71.4162 54.9915 71.4519 54.6834C71.5064 54.2023 71.5572 53.725 71.3467 53.2252C70.9559 52.3044 70.4203 51.361 71.1156 50.3313C71.1602 50.2672 71.1904 50.1942 71.204 50.1173C71.2176 50.0404 71.2144 49.9614 71.1945 49.8859C70.6721 48.8467 71.0912 48.454 72.1341 48.4258C72.4385 48.4258 72.4385 48.3751 72.4498 47.5802C72.5238 47.5549 72.6021 47.5447 72.6801 47.5499C72.7581 47.5552 72.8343 47.5759 72.9042 47.6109C72.9742 47.6458 73.0364 47.6944 73.0875 47.7536C73.1385 47.8129 73.1772 47.8817 73.2014 47.956C73.1338 48.0594 73.068 48.1646 72.9985 48.268C72.835 48.5104 72.6828 48.843 73.021 48.9632C73.3593 49.0835 73.3424 48.6945 73.3969 48.4597C73.4386 48.346 73.4922 48.2371 73.5566 48.1346C73.9324 48.7115 73.7858 49.3015 73.596 49.8897C73.3705 50.2317 73.1131 50.0005 72.8444 49.9141C72.8744 50.1753 73.1732 50.1866 73.2484 50.3877C73.2811 50.5176 73.2868 50.6528 73.2652 50.785C73.2435 50.9172 73.1949 51.0435 73.1225 51.1562C73.0438 51.276 72.9394 51.3766 72.8168 51.4507C72.6942 51.5248 72.5566 51.5706 72.4141 51.5847C72.7335 51.6241 72.7016 52.0469 73.0267 52.0131C73.1051 52.0112 73.1825 52.0306 73.2507 52.0694C73.3189 52.1081 73.3753 52.1646 73.4138 52.233C73.3875 52.6238 73.4551 53.0166 73.395 53.4074C73.4288 53.9712 73.3799 54.5086 73.0191 55.0009C72.7204 55.4087 72.6959 55.9255 72.6339 56.4159C72.3727 58.483 71.7394 60.4354 71.0103 62.3747C70.8393 62.8294 70.5274 62.8539 70.2136 62.9986C69.9937 62.8971 69.9806 62.6622 69.9129 62.4348C69.3342 63.1132 69.2928 63.7728 69.7908 64.4568C69.7269 65.4076 69.1763 66.3228 68.5581 66.7324C68.0056 67.0951 68.1522 67.5799 67.8177 67.9294C66.3463 69.4722 65.0084 71.1409 63.5558 72.7006C62.4133 73.9277 61.3253 75.2243 59.8727 76.1206C59.5589 76.2127 59.3089 75.9722 59.3691 75.7786C59.5025 75.3182 59.1605 74.8221 59.5081 74.4012C60.2823 74.668 60.4608 73.9897 60.8912 73.5762C60.489 73.518 60.256 73.8018 59.9516 73.798C59.5927 73.798 59.3465 73.7191 59.3879 73.2737C59.4048 73.0426 59.5476 72.7795 59.3127 72.5671C59.3001 72.3498 59.3166 72.1318 59.3615 71.9189C59.6415 71.1465 59.4818 70.5884 58.4802 70.3066C59.1642 70.1186 59.5814 70.0773 60.0098 70.5753C60.3237 70.9398 60.8761 71.1052 59.9873 71.3983C59.8595 71.4415 59.7205 71.808 59.7693 71.9621C59.8933 72.3698 60.1621 71.7742 60.3876 72.0222C60.318 72.1763 60.2447 72.3435 60.1677 72.5089C60.0906 72.6743 60.0531 72.9317 60.2842 72.9693C60.5774 73.0163 60.4195 72.7118 60.4909 72.5935C60.7089 72.2364 60.6788 71.8005 61.1467 71.496C61.5677 71.2198 61.5376 70.5396 61.0885 70.1299C60.8498 69.9138 60.8893 69.8217 60.9738 69.5324C61.2745 68.5251 61.9134 67.4653 60.816 66.5088C60.5116 66.242 60.7859 66.0315 61.0565 66.024C61.4887 66.024 61.765 66.2514 61.7387 66.7211C61.6973 67.4972 61.874 68.2846 61.6222 69.0494C61.3704 69.8142 62.0525 70.16 62.3625 70.6598C62.4922 70.8665 62.8549 70.6486 62.8924 70.4869C63.0127 69.9645 63.2946 69.1715 63.0597 68.9367C62.5373 68.4161 62.8605 68.1004 63.0785 67.7472C63.3773 67.2642 63.6761 66.8076 63.6422 66.2063C63.6328 65.9977 63.8301 65.7515 63.7738 65.5805C63.6197 65.1333 63.4712 65.8004 63.3679 65.6294C63.3225 65.5604 63.2928 65.4823 63.2809 65.4006C63.2689 65.3189 63.2751 65.2356 63.299 65.1566C63.3228 65.0775 63.3637 65.0047 63.4188 64.9432C63.4739 64.8817 63.5418 64.833 63.6178 64.8007C64.283 64.4474 64.1327 63.7408 63.8414 63.5304C63.0597 62.9666 63.5877 62.2676 63.4449 61.6512C63.4111 61.5046 63.676 61.3092 63.6911 61.3919C63.7869 61.8767 64.5837 61.7677 64.4634 62.5062C64.36 63.2803 64.3311 64.0624 64.377 64.842C64.3927 65.6236 64.3355 66.4049 64.206 67.1759C64.1665 67.4089 64.065 67.7265 64.3131 67.8599C64.4709 67.9445 64.7453 67.8599 64.9482 67.7998C65.2902 67.6889 65.1211 67.4033 65.1361 67.1684C65.1549 66.4994 64.9276 65.7872 65.4481 65.1972C64.6964 63.8705 66.1603 62.495 65.3673 61.1645C65.3053 61.0612 65.3203 60.8563 65.2433 60.8225C64.3168 60.3997 64.8562 60.2231 65.3635 60.0239C65.6172 59.9224 65.6454 59.7345 65.5608 59.4883C65.5026 59.3422 65.4894 59.182 65.5229 59.0283C65.5564 58.8747 65.635 58.7345 65.7487 58.6258C66.1246 58.8006 66.2336 59.043 66.0757 59.4489C65.9544 59.769 65.8908 60.1081 65.8878 60.4504C65.8878 60.8131 65.7863 61.3036 66.4384 61.266C67.0284 61.2322 67.6185 60.9541 67.3216 60.3659C66.7409 59.2177 67.2239 58.3496 67.7463 57.4288C67.7703 57.368 67.7885 57.3051 67.8008 57.2409C67.8872 56.9797 68.0582 56.6941 67.7726 56.4723C67.4249 56.2036 67.4588 56.8857 67.0435 56.7298C67.4362 56.3145 66.4797 55.435 67.6542 55.2979C67.7312 54.4955 67.8816 53.6799 67.6542 52.8925C67.4888 52.2987 67.6542 51.9361 68.1973 51.6222C68.1409 52.605 67.8214 53.6423 68.1108 54.4579C68.3795 55.2095 67.953 56.0176 68.5224 56.6565C68.5976 56.7391 68.6491 56.8405 68.6716 56.9499C68.6941 57.0594 68.6867 57.1729 68.6501 57.2785C68.263 58.2537 68.8625 58.9847 69.244 59.7702C68.9809 60.4598 69.539 61.1326 69.3022 61.6944C69.336 61.0969 69.3642 60.3678 69.663 59.6856C69.7438 59.5466 69.8622 59.3643 69.6292 59.2252Z" fill="white"/>
<path d="M35.2553 87.9599C35.524 87.7325 35.5579 88.0107 35.6593 88.1478C36.2081 88.5237 36.069 89.0404 35.9206 89.5459C36.6497 89.5253 37.0837 89.2321 37.1439 88.5161C37.2096 88.2794 37.2923 88.0464 37.3318 87.804C37.4239 87.2778 37.8166 87.2552 38.0609 87.5334C38.6547 88.2042 39.1339 88.2512 39.6732 87.5033C39.8047 87.3154 40.0077 87.4056 40.1467 87.571C40.0622 87.579 39.9804 87.6054 39.907 87.6483C39.8337 87.6911 39.7706 87.7495 39.7221 87.8192C39.6736 87.889 39.641 87.9685 39.6263 88.0522C39.6117 88.1359 39.6155 88.2217 39.6375 88.3038C39.8592 89.1964 39.4233 89.529 38.6453 89.6455C38.4875 89.4576 38.5175 89.2452 38.5307 89.031C38.542 88.8431 38.6096 88.6552 38.3822 88.55C38.3252 88.5248 38.2608 88.5218 38.2017 88.5416C38.1426 88.5614 38.0931 88.6026 38.0628 88.6571C37.935 88.8751 37.8542 89.1062 38.012 89.3505C38.1323 89.5384 38.5532 89.4351 38.4536 89.8222C37.437 90.0439 36.5519 90.5738 35.6612 91.0718C35.3742 91.2519 35.0396 91.3416 34.701 91.3292C34.6484 91.2278 34.6559 91.0643 34.5431 91.0398C34.4962 91.0398 34.5901 91.1282 34.6145 91.1751C34.639 91.2221 34.6803 91.2729 34.7029 91.3274C31.7282 92.6897 28.7986 94.1461 25.5778 94.8977C24.4991 95.1514 23.4769 95.6494 22.4189 95.9989C21.0509 96.4593 19.6002 96.3747 18.1965 96.5626C17.9747 96.5927 17.6684 96.4743 17.7079 96.2394C17.8507 95.3713 17.2438 94.5632 17.5801 93.6744C17.8357 92.996 17.3208 92.2312 17.8075 91.5397C17.8075 92.2744 17.8075 93.0092 17.8075 93.742C17.8075 94.0634 17.8864 94.2945 18.2416 94.3471C18.7076 94.4148 18.484 94.0277 18.5761 93.8473C19.1868 92.6352 19.619 91.4044 19.0308 89.9011C19.6622 90.4253 19.6509 90.4254 19.6885 91.0417C19.7148 91.4664 19.5833 91.9061 19.8652 92.4586C20.3011 91.6788 21.1486 91.3311 21.2407 90.4047C21.6842 90.525 21.5451 90.8632 21.5658 91.1131C21.6184 91.722 22.1051 91.7877 22.5166 91.799C22.9996 91.8141 23.0804 91.4232 23.0653 90.9985C23.0121 90.2265 23.098 89.4513 23.319 88.7097C23.6516 89.2565 23.9918 89.7601 23.4844 90.4404C23.3359 90.6396 23.272 91.192 23.6629 91.4532C23.8301 91.5641 24.0707 91.5641 24.2774 91.6167C24.2774 91.1545 24.7716 90.9816 24.8806 90.5287C25.0892 89.6512 24.9652 88.8093 24.8505 87.9562C24.8242 87.7513 24.8054 87.554 25.0272 87.4977C25.3128 87.4263 25.2921 87.6856 25.3128 87.8509C25.4274 88.8412 25.5496 89.8297 25.6473 90.82C25.6943 91.286 26.211 91.2653 26.3989 91.7802C26.6188 91.1451 26.989 90.7429 26.7447 90.2017C26.7278 90.166 26.4215 90.2619 26.211 90.3051C26.1734 89.7413 26.8744 89.5177 26.818 88.9051C26.7954 88.6515 27.066 88.9277 27.2352 88.9991C27.6861 89.187 27.5903 89.7282 28.1315 89.9669C29.0279 90.3615 28.9696 89.7789 29.0241 89.3674C29.0842 88.9277 28.793 88.2831 29.3492 88.1798C29.5578 88.1422 29.4319 88.9653 29.3135 89.3956C29.1256 90.0909 29.6123 89.715 29.8772 89.715C29.8096 90.074 29.2045 90.3408 29.7363 90.7523C30.0313 90.9835 30.456 91.1037 30.689 90.9722C31.0348 90.7843 30.8657 90.0683 30.783 89.9875C30.1272 89.3486 30.6552 88.9296 30.9709 88.4617C31.0638 88.3208 31.1271 88.1625 31.1567 87.9963C31.1863 87.8302 31.1817 87.6597 31.1432 87.4954C31.1047 87.3311 31.033 87.1764 30.9326 87.0408C30.8322 86.9051 30.7052 86.7914 30.5594 86.7065C31.2358 86.2555 31.1363 86.2931 31.405 86.9828C31.6436 87.5935 31.7395 88.0727 31.3618 88.6496C31.2471 88.8262 31.1738 89.3223 31.8109 89.0122C32.5193 88.6627 33.6111 88.7153 32.9384 87.4244C33.4852 86.6727 32.9816 85.7952 33.2634 85.0228C33.5397 84.3283 33.6347 83.575 33.5397 82.8336C33.9287 83.0215 33.8817 83.2997 33.9399 83.5552C34.0752 84.1528 34.374 84.7579 33.5773 85.1318C33.5641 85.1318 33.5622 85.1957 33.5773 85.222C33.9907 86.1334 33.566 87.0504 33.5923 87.9656C33.6054 88.4015 34.2143 88.3978 34.203 88.8431C33.4608 88.721 33.4514 89.2528 33.3837 89.7564C33.6186 89.8767 33.8291 89.6981 34.0658 89.7395C34.592 89.8334 35.3474 90.0439 34.8645 88.9559C34.7668 88.7285 35.1144 88.2982 35.2553 87.9599Z" fill="white"/>
<path d="M7.48308 168.871C7.65596 167.597 7.26134 166.09 7.28389 164.562C7.28389 163.951 7.4549 163.81 8.03555 163.97C8.61204 164.112 9.13811 164.41 9.55578 164.832C9.88275 165.184 10.2492 165.479 10.7547 165.479C11.2038 165.479 11.2789 165.838 11.465 166.118C11.9742 166.886 12.4948 167.527 13.6373 167.245C14.5581 167.022 14.8456 167.741 14.917 168.534C15.0579 170.111 14.5656 171.789 13.4343 172.396C11.2414 173.57 9.1574 173.463 7.94724 172.246C7.78643 172.101 7.66035 171.921 7.57837 171.721C7.49639 171.52 7.46061 171.304 7.47369 171.088C7.50376 170.44 7.48308 169.782 7.48308 168.871Z" fill="white"/>
<path d="M72.9997 51.159C72.9912 50.8939 73.0618 50.6322 73.2026 50.4073C73.1922 50.3361 73.2016 50.2633 73.2298 50.197C73.258 50.1308 73.3038 50.0735 73.3623 50.0315C73.725 49.4283 73.5315 48.7687 73.5503 48.1317C73.6241 46.8952 73.535 45.6543 73.2853 44.4411C73.7851 44.7098 73.8284 44.2099 73.7739 43.6105C74.3376 43.9675 73.9524 44.52 74.3207 44.7643C74.1328 46.8313 73.8866 48.8796 73.9449 50.9542C73.867 51.432 73.6735 51.8836 73.3811 52.2696L73.0203 52.0817C72.7272 51.7885 72.7817 51.4709 72.9997 51.159Z" fill="white"/>
<path d="M59.6663 74.4181C59.6512 74.9968 59.219 75.6301 59.8824 76.1224C59.7358 76.6411 59.1777 76.8008 58.9184 77.2198C58.6478 76.7745 58.0953 76.331 59.0217 75.9383C59.1758 75.8744 59.2829 75.3933 59.2096 75.1641C58.9503 74.2752 59.2604 73.4315 59.3111 72.569C59.6212 72.5934 59.6494 72.7569 59.5404 73.0087C59.3806 73.3695 59.5592 73.5724 59.8824 73.6852C60.1098 74.0178 60.0346 74.2621 59.6663 74.4181Z" fill="white"/>
<path d="M69.7994 64.4571C69.5062 64.6357 69.2826 64.6808 69.2469 64.2241C69.1943 63.5101 68.9557 62.7546 69.7674 62.2679C69.8313 62.2304 69.8482 62.112 69.8952 62.0105C70.2711 62.2661 70.1733 62.6569 70.2222 62.997C70.1113 63.4931 70.0756 64.0024 69.7994 64.4571Z" fill="white"/>
<path d="M38.4605 89.8215C37.7089 89.7821 37.5078 89.4776 37.6732 88.6846C37.7991 88.0777 38.1486 88.2073 38.4605 88.2017C38.8758 88.2017 38.9566 88.4629 38.8363 88.8368C38.7518 89.098 38.7142 89.3743 38.6484 89.6449L38.4605 89.8215Z" fill="white"/>
<path d="M73.3755 52.2682C73.3755 51.7514 73.7513 51.3887 73.9392 50.9528C73.9655 51.8153 73.5108 52.5707 73.398 53.3956C73.3109 53.2211 73.2637 53.0294 73.2598 52.8344C73.2559 52.6394 73.2954 52.446 73.3755 52.2682Z" fill="white"/>
<path d="M62.3324 52.6114C61.9735 52.6114 62.2554 53.0492 61.9566 53.0661C61.9115 53.0267 61.8213 52.974 61.8288 52.9496C62.3287 51.2584 62.0769 49.5314 62.1257 47.8177C62.1971 45.3748 62.1445 42.9131 62.1746 40.4646C62.1746 39.8557 61.7687 38.9838 62.588 38.452C62.6218 38.4295 62.4471 37.8996 62.3118 37.6121C62.0205 36.9882 61.9152 36.3399 62.5654 35.8024C63.0653 35.389 62.6406 35.0414 62.4207 34.7031C62.2009 34.3649 62.5504 32.9405 62.898 32.747C63.2137 32.5741 63.5407 33.2637 63.8245 32.7131C64.1308 32.9198 64.2116 32.7019 64.2341 32.4688C64.3112 31.7003 64.8298 30.9655 64.3224 30.1237C65.1737 30.4882 65.8445 32.1907 65.4593 32.886C65.1417 33.4498 64.8354 32.7169 64.4784 32.8578C64.811 33.2938 64.9068 33.8594 65.448 34.1469C65.7299 34.2972 65.7374 34.6468 65.5382 34.8986C65.1305 35.3965 65.1718 35.8381 65.4462 36.415C65.775 37.116 65.1943 37.8188 65.1699 38.5535C65.1699 38.8391 64.8467 38.9143 64.5273 38.6606C63.6159 37.9334 63.5482 35.9396 64.4859 35.2782C64.7716 35.0752 64.7396 35.1165 64.5028 34.9155C64.112 34.5829 64.8016 33.9909 64.2285 33.6189C63.257 34.2503 63.1649 35.3289 63.396 36.2234C63.5332 36.7514 63.2344 37.099 63.2513 37.5388C63.2814 38.2904 63.3847 39.1003 63.4392 39.8426C63.4919 40.5191 63.3415 41.2256 63.5388 41.9097C63.6347 42.2441 63.9147 42.7553 63.2663 42.9902C63.0277 43.0766 63.2663 43.225 63.2908 43.3509C63.4186 44.2285 63.6253 45.0873 63.2739 45.9817C63.0446 46.5737 63.6873 47.1412 63.5369 47.7951C63.49 47.9943 63.661 48.2687 63.5783 48.4303C63.0803 49.3849 62.7233 50.3094 63.5783 51.2659C63.6008 51.3067 63.6126 51.3527 63.6126 51.3993C63.6126 51.446 63.6008 51.4919 63.5783 51.5327C62.5993 52.3426 63.4336 53.3818 63.2269 54.2857C63.1987 54.4059 63.2269 54.5394 63.1987 54.6615C63.148 54.8832 63.039 55.1068 62.8041 55.1388C62.4997 55.1783 62.5297 54.8738 62.4283 54.6916C62.1069 54.0207 62.5203 53.2935 62.3324 52.6114Z" fill="white"/>
<path d="M66.5611 31.7715C67.7337 32.4292 68.5606 35.0487 67.9198 36.8076C67.7318 36.4318 67.5966 36.0277 67.0779 36.1593C67.3109 36.6403 67.3579 37.1721 66.89 37.6476C66.5893 37.952 66.9746 38.2113 67.046 38.4593C67.2602 39.211 66.9257 40.2182 66.2361 40.502C66.1628 40.532 66.0162 40.5358 65.9861 40.502C65.7982 40.2558 65.8959 39.9608 65.8865 39.6864C65.8865 39.5267 65.9429 39.5436 66.1026 39.5868C66.734 39.7484 66.8299 39.0381 66.6814 38.9141C65.8565 38.2245 66.5405 37.3244 66.253 36.5934C66.082 36.1574 66.4014 35.635 65.9711 35.2366C65.8715 35.1427 65.8358 34.7932 65.9166 34.7161C66.7885 33.8667 66.1252 32.6979 66.5611 31.7715Z" fill="white"/>
<path d="M65.4173 39.1009C65.7311 39.892 65.825 40.6418 65.3271 41.3559C65.1128 41.6678 65.374 41.8501 65.515 42.0906C65.8908 42.7295 65.7029 43.406 65.1391 43.9059C65.0798 43.9567 65.0334 44.0209 65.0037 44.0931C64.9741 44.1654 64.9621 44.2437 64.9687 44.3216C64.9753 44.3994 65.0003 44.4746 65.0417 44.5408C65.0831 44.6071 65.1397 44.6626 65.2068 44.7026C65.7198 45.0991 66.0562 45.4919 65.2726 45.9936C64.9963 46.1684 65.2256 46.3394 65.4304 46.4671C65.8532 46.7302 65.7217 47.0741 65.4454 47.3165C65.0527 47.6604 64.9926 47.1474 64.8648 46.9877C64.5453 46.5855 63.6377 46.1665 64.7727 45.6441C64.8006 45.6117 64.8207 45.5733 64.8314 45.5319C64.8421 45.4906 64.8433 45.4473 64.8347 45.4054C63.8407 44.6012 64.7483 43.6221 64.5961 42.7427C64.5604 42.5322 64.4908 42.5754 64.3781 42.5924C63.8031 42.675 63.929 42.1226 63.9778 41.9704C64.1056 41.5682 64.3912 41.2187 64.0361 40.7978C64.0192 40.7809 64.0361 40.7376 64.0361 40.7076C63.9403 40.2096 64.8197 40.8053 64.5886 40.2359C64.4721 39.9484 63.9722 40.1589 63.8012 39.8169C63.6847 39.5857 63.5625 39.3565 63.773 39.1291C63.9835 38.9017 64.2033 38.9036 64.3931 39.1685C64.7464 39.6853 65.0226 39.1516 65.4173 39.1009Z" fill="white"/>
<path d="M37.1459 88.514C37.4484 88.9049 37.191 89.292 37.1346 89.6791C37.1083 89.8557 36.9354 90.0286 36.8339 89.8933C36.3303 89.2168 36.1574 89.9084 35.8605 90.1339C35.3156 89.495 36.1029 88.7564 35.6613 88.1457C36.4318 87.1535 36.7212 88.1063 37.1459 88.514Z" fill="white"/>
<path d="M54.6212 70.5483C55.2245 70.7043 55.3297 70.9336 55.2996 71.377C55.2414 72.2302 54.6288 72.8014 54.3206 73.523C54.2961 73.5794 54.1327 73.6452 54.1007 73.6189C53.9991 73.564 53.9229 73.4716 53.8884 73.3614C53.847 72.901 53.8151 72.4782 54.2642 72.1099C54.687 71.7698 55.185 71.3451 54.6212 70.5483Z" fill="white"/>
<path d="M65.0917 16.4243C65.4976 16.5183 65.8847 16.6292 65.7645 17.2004C65.678 17.6119 65.6047 18.0216 65.0128 17.9164C64.5054 17.8224 64.2856 17.5293 64.3269 17.0087C64.3758 16.522 64.6219 16.3511 65.0917 16.4243Z" fill="white"/>
<path d="M69.6271 59.2263C69.6703 59.0835 69.6797 58.8505 69.7661 58.8129C69.9935 58.7284 69.971 58.9576 69.9841 59.0948C70.0311 59.5758 69.8375 60.0081 69.7022 60.4553C69.5519 60.9589 69.3734 61.4644 69.3847 62.0225C69.0408 61.4587 69.1742 60.7672 68.7552 60.2091C68.5071 59.8765 68.9863 59.8333 69.2531 59.7901C69.4843 59.6811 69.5312 59.4293 69.6271 59.2263Z" fill="white"/>
<path d="M55.8264 70.9683C55.7081 70.2636 56.1685 69.946 56.6307 69.8521C56.9408 69.7901 57.1945 70.2636 57.1851 70.5868C57.1757 70.91 57.093 71.3554 56.5612 71.3385C55.834 71.3329 55.834 71.3329 55.8264 70.9683Z" fill="white"/>
<path d="M67.7511 18.8622C67.7605 19.4259 67.6853 19.875 66.9994 19.3564C66.6706 19.1083 66.1613 19.4522 65.9264 19.0031C65.8663 18.8904 65.9603 18.7701 66.1031 18.7438C66.6668 18.6367 67.255 18.0729 67.7492 18.8641L67.7511 18.8622Z" fill="white"/>
<path d="M67.466 46.1516C66.393 45.2835 66.378 45.088 67.2612 44.2875C67.3532 44.2048 67.4359 44.0676 67.5599 44.1691C67.637 44.2311 67.7159 44.4284 67.6783 44.4754C67.2781 44.9865 67.7685 45.5879 67.466 46.1516Z" fill="white"/>
<path d="M64.5695 47.6672C65.0186 47.7349 65.6537 48.9826 65.4264 49.3584C65.2929 49.5839 65.0806 49.7023 64.9378 49.4092C64.7014 48.9082 64.495 48.3937 64.3195 47.8683C64.2707 47.7461 64.4248 47.6559 64.5695 47.6672Z" fill="white"/>
<path d="M63.2453 57.5132C63.2453 57.8101 63.2171 58.0995 62.8169 58.077C62.4166 58.0544 62.3114 57.7838 62.3133 57.4362C62.3151 57.0885 62.4354 56.7334 62.7718 56.7446C63.1701 56.754 63.2491 57.1505 63.2453 57.5132Z" fill="white"/>
<path d="M68.7667 35.8773C68.8757 36.4899 69.9092 36.1272 69.7288 36.8394C69.6912 36.9898 68.9189 37.1927 68.7892 37.1195C68.1654 36.7925 68.8794 36.3377 68.7667 35.8773Z" fill="white"/>
<path d="M68.061 42.0176C67.4127 42.1435 67.0481 41.9405 66.6723 41.8541C66.4844 41.8109 66.2138 41.6812 66.3247 41.4069C66.4524 41.093 66.7399 41.1795 66.9561 41.2979C67.2793 41.4745 67.563 41.6925 68.061 42.0176Z" fill="white"/>
<path d="M46.3466 81.568C46.4893 81.5242 46.6252 81.461 46.7506 81.3801C46.9103 81.2485 46.6303 80.7487 47.0531 80.8783C47.476 81.008 47.164 81.4721 47.1978 81.7709C47.2279 82.0303 46.9874 82.2351 46.6191 82.1787C46.1512 82.1054 46.3316 81.8029 46.3485 81.5623L46.3466 81.568Z" fill="white"/>
<path d="M42.0293 84.569C42.3713 84.569 42.7208 84.6085 42.8336 84.1481C42.8693 83.9959 43.0215 83.8437 43.1756 83.9207C43.2183 83.9392 43.2551 83.9691 43.2821 84.007C43.309 84.045 43.3251 84.0896 43.3286 84.136C43.3321 84.1824 43.3228 84.2289 43.3018 84.2704C43.2808 84.312 43.2489 84.347 43.2094 84.3717C42.8524 84.5126 43.2714 85.2211 42.6457 85.1008C42.3469 85.0444 41.9053 85.1234 42.0274 84.5671L42.0293 84.569Z" fill="white"/>
<path d="M59.2357 66.7585C59.1154 67.1061 58.8392 67.1099 58.5592 67.0929C58.2284 67.0723 58.1833 66.8449 58.1833 66.5781C58.1833 66.3112 58.3168 66.144 58.5817 66.2248C58.8467 66.3056 59.1981 66.3808 59.2357 66.7585Z" fill="white"/>
<path d="M68.3863 38.7025C68.9726 38.7645 69.2921 39.2005 69.1887 39.6214C69.0365 40.2453 68.6081 40.1589 68.5686 39.5594C68.5498 39.2606 68.236 39.0445 68.3863 38.7025Z" fill="white"/>
<path d="M69.0713 33.4541C69.278 33.8299 69.6614 34.1926 69.1784 34.5383C69.1424 34.5688 69.1005 34.5913 69.0552 34.6044C69.0099 34.6174 68.9624 34.6208 68.9157 34.6143C68.8691 34.6077 68.8243 34.5913 68.7844 34.5663C68.7445 34.5412 68.7104 34.508 68.6842 34.4688C68.4042 33.984 69.1145 33.8807 69.0713 33.4541Z" fill="white"/>
<path d="M67.3762 22.8044C67.5538 22.8533 67.7272 22.9161 67.8949 22.9924C67.9459 23.0152 67.9911 23.0492 68.0273 23.0918C68.0635 23.1343 68.0898 23.1844 68.1042 23.2384C68.1186 23.2924 68.1208 23.349 68.1106 23.4039C68.1004 23.4589 68.078 23.5109 68.0452 23.5561C68.0083 23.6019 67.962 23.6393 67.9095 23.6659C67.8571 23.6924 67.7995 23.7075 67.7408 23.7102C67.4514 23.7215 67.3875 23.511 67.3819 23.2723C67.3819 23.1164 67.3819 22.9604 67.3819 22.8044H67.3762Z" fill="white"/>
<path d="M65.662 52.378C65.6357 52.5659 65.5567 52.7425 65.3444 52.7538C65.2989 52.7632 65.2518 52.7612 65.2072 52.7481C65.1627 52.735 65.122 52.7112 65.0888 52.6788C65.0556 52.6463 65.0309 52.6062 65.0168 52.5619C65.0027 52.5177 64.9997 52.4706 65.008 52.4249C65.0306 52.2239 65.0851 51.9702 65.3613 51.9777C65.5718 51.9927 65.6451 52.1825 65.662 52.378Z" fill="white"/>
<path d="M73.194 47.9567L72.4424 47.5808L73.2391 47.1317C73.521 47.4474 73.3312 47.7011 73.194 47.9567Z" fill="white"/>
<path d="M66.5954 47.5304C66.8178 47.4908 66.9214 47.5983 66.9346 47.7716C66.9359 47.851 66.9084 47.9282 66.8571 47.9889C66.8058 48.0495 66.7342 48.0895 66.6557 48.1014C66.4974 48.1447 66.3316 48.1165 66.2977 47.9129C66.26 47.6736 66.4447 47.6001 66.5954 47.5304Z" fill="white"/>
<path d="M67.1938 20.0439C67.6167 20.0853 67.8459 20.1548 67.8966 20.4461C67.906 20.5062 67.814 20.634 67.767 20.634C67.425 20.6509 67.3404 20.4085 67.1938 20.0439Z" fill="white"/>
<path d="M46.2769 83.5288C46.5343 83.3897 46.6527 83.0421 46.9909 83.1999C47.0435 83.2244 47.0661 83.4461 47.0191 83.525C46.7936 83.8764 46.555 83.6378 46.2769 83.5288Z" fill="white"/>
<path d="M59.6641 74.419C59.7373 74.1747 59.8106 73.9304 59.8858 73.6861C59.9628 73.634 60.0446 73.5893 60.1301 73.5527C60.5059 73.4249 60.8817 72.801 61.2482 73.2764C61.5714 73.7086 60.94 73.889 60.6694 74.1521C60.3988 74.4152 60.2616 75.2984 59.6641 74.419Z" fill="white"/>
<path d="M71.6464 50.2861C71.9076 50.7183 72.0222 51.128 71.8756 51.6015C71.8024 51.8176 71.7535 52.0525 71.4716 52.0206C71.1898 51.9886 71.1691 51.7575 71.1353 51.532C71.0563 50.9964 71.3119 50.6338 71.6464 50.2861Z" fill="white"/>
<path d="M62.1203 72.7285C62.113 72.4627 62.1338 72.1969 62.1824 71.9355C62.2538 71.6893 62.3308 71.306 62.6578 71.3511C62.9847 71.3962 63.0449 71.7739 63.0505 72.082C63.0618 72.4955 62.8927 72.5293 62.5375 72.3583C62.1824 72.1873 62.4191 72.7135 62.1203 72.7285Z" fill="white"/>
<path d="M73.0003 51.1582C73.0003 51.4664 73.0116 51.7764 73.0154 52.0846C72.9834 52.2725 72.974 52.5074 72.7504 52.5168C72.5268 52.5262 72.4761 52.3289 72.5287 52.1203C72.5437 52.0602 72.5869 51.9737 72.5644 51.9437C72.0645 51.3179 72.4554 51.1977 73.0003 51.1582Z" fill="white"/>
<path d="M73.3622 50.0334C73.3746 50.1048 73.3661 50.1782 73.3378 50.2449C73.3095 50.3116 73.2625 50.3687 73.2024 50.4092C73.0277 50.3566 72.8548 50.2965 72.6763 50.2533C72.3775 50.1818 72.2403 50.0428 72.4207 49.7365C72.6011 49.4302 72.8435 49.4246 73.0841 49.6726C73.1839 49.7872 73.2767 49.9077 73.3622 50.0334Z" fill="white"/>
<path d="M33.1511 89.529C32.935 89.8691 33.1643 90.5099 32.5347 90.5174C32.2717 90.5174 31.8263 90.5513 31.7831 90.057C31.7342 89.4163 32.2378 89.2697 32.6738 89.1175C32.9575 89.0235 33.1229 89.2396 33.1511 89.529Z" fill="white"/>
<path d="M34.7073 91.3281C34.572 91.05 34.1285 91.531 34.0665 91.0631C34.0233 90.7268 34.2995 90.7437 34.4856 90.6986C34.8896 90.6046 34.8933 90.6215 34.7054 91.33L34.7073 91.3281Z" fill="white"/>
<path d="M21.0382 93.4165L20.4143 92.5145C20.5214 92.4675 20.6811 92.3529 20.73 92.3886C21.0344 92.6066 21.2486 92.8809 21.0382 93.4165Z" fill="white"/>
<path d="M28.2101 91.2908C28.1359 91.2778 28.0695 91.2367 28.0249 91.1759C27.9803 91.1152 27.9609 91.0395 27.9708 90.9648C27.9708 90.848 27.9708 90.6935 28.1347 90.6991C28.359 90.6991 28.4042 90.9158 28.4362 91.076C28.4626 91.2154 28.3477 91.287 28.2101 91.2908Z" fill="white"/>
<path d="M11.0229 167.543C10.9722 167.976 10.6753 167.989 10.4592 167.882C9.77058 167.533 9.10297 167.145 8.45975 166.718C8.38734 166.67 8.32633 166.607 8.28098 166.533C8.23563 166.458 8.20704 166.375 8.1972 166.289C8.18735 166.202 8.1965 166.115 8.224 166.032C8.2515 165.95 8.29668 165.874 8.3564 165.811C8.41059 165.753 8.47679 165.708 8.55035 165.678C8.62391 165.649 8.70305 165.636 8.7822 165.64C8.86136 165.644 8.93861 165.666 9.00854 165.703C9.07847 165.74 9.13937 165.793 9.18698 165.856C9.57899 166.45 10.1289 166.922 10.7749 167.22C10.9045 167.263 10.9609 167.446 11.0229 167.543Z" fill="white"/>
</svg>
